<svg version="1.1" id="Layer_1" xmlns="http://www.w3.org/2000/svg" xmlns:xlink="http://www.w3.org/1999/xlink" x="0px" y="0px"
	 width="100%" viewBox="0 0 731 766" enable-background="new 0 0 731 766" xml:space="preserve">
<path fill="#F9EAC9" opacity="1.000000" stroke="none" 
	d="
M69.000000,1.000000 
	C289.359161,1.000000 509.718353,1.000000 730.539429,1.468657 
	C731.001343,205.511017 731.001343,409.084717 731.001343,613.132019 
	C708.067688,613.132019 685.670776,613.132019 662.812683,613.132019 
	C662.812683,664.329102 662.812683,715.053833 662.812683,766.000000 
	C441.895599,766.000000 221.447800,766.000000 1.000000,766.000000 
	C1.000000,608.974182 1.000000,451.948334 1.468657,294.460571 
	C24.199757,293.998627 46.462200,293.998627 69.000000,293.998627 
	C69.000000,195.928528 69.000000,98.464264 69.000000,1.000000 
M49.964039,694.838440 
	C49.961105,695.324646 49.958172,695.810791 49.164394,696.237732 
	C47.855717,695.735779 46.103371,695.603882 45.319374,694.664185 
	C42.698807,691.523010 40.579807,687.963257 37.959030,684.822266 
	C36.419220,682.976746 33.895260,680.057068 32.521988,680.406128 
	C30.389538,680.948120 28.155016,683.594666 27.286491,685.856873 
	C26.509363,687.881042 26.498049,690.206726 29.567732,692.409546 
	C35.514141,696.677002 43.021770,699.326721 46.018784,707.349731 
	C47.887093,712.351196 46.509609,720.146667 41.109646,721.634033 
	C42.046936,718.397949 44.375298,714.807678 43.658604,711.992737 
	C41.574871,703.808411 34.510616,700.232544 27.863470,697.076477 
	C23.388874,706.084290 30.831276,710.766907 34.558594,716.590576 
	C36.099186,718.997620 39.477077,720.228821 42.314327,722.724365 
	C40.630623,724.242432 38.946918,725.760498 36.743595,727.747070 
	C33.463753,722.732483 30.541018,718.263916 27.354473,713.391968 
	C27.354473,721.039795 27.354473,727.941406 27.354473,735.001038 
	C62.634552,735.001038 97.559235,735.000977 132.483917,735.000977 
	C164.591003,735.000977 196.698181,735.032288 228.804855,734.917175 
	C230.583313,734.910767 232.357422,733.690857 234.596802,733.447937 
	C235.421829,733.955139 236.246872,734.462402 237.999847,734.997314 
	C312.967041,734.997314 387.934204,734.997314 463.523926,734.997314 
	C461.306427,732.379578 459.426178,730.684509 458.192383,728.605774 
	C454.403290,722.221741 451.128967,715.520203 447.138428,709.271729 
	C444.029327,704.403198 440.956604,698.767761 432.732697,700.325745 
	C436.770660,708.220825 438.235474,716.226685 435.688110,725.371521 
	C433.064667,724.655212 430.772827,724.029480 428.480988,723.403748 
	C428.533417,723.056396 428.585876,722.709045 428.638306,722.361694 
	C429.995972,721.840149 431.353668,721.318604 433.532257,720.481750 
	C431.720764,714.402161 430.147644,708.316223 428.067566,702.408813 
	C426.530151,698.042542 424.965576,694.063477 427.489746,689.396606 
	C429.255188,686.132568 430.024353,682.329651 431.437866,678.182556 
	C429.967346,678.844177 429.307312,679.141174 428.647339,679.438232 
	C428.550323,678.807251 428.304932,677.642517 428.377686,677.622253 
	C431.148834,676.851929 433.922455,676.012329 436.756439,675.578003 
	C438.257263,675.348022 439.871399,675.989746 441.431274,675.971497 
	C442.683075,675.956909 444.168243,674.983215 445.139160,675.397461 
	C449.952423,677.451721 452.780182,681.106995 452.846191,686.530029 
	C452.895508,690.579712 454.728271,695.263611 448.663513,697.058777 
	C447.034027,697.541138 445.728241,699.117126 443.964386,700.419617 
	C451.284821,707.099243 456.247772,714.860962 459.540863,723.907715 
	C460.639465,726.925720 463.926575,729.146973 466.529327,732.178955 
	C467.358856,732.449890 468.188385,732.720825 469.896057,732.943298 
	C473.327667,732.691040 476.759277,732.438782 480.234222,732.183411 
	C479.474213,736.537354 482.733215,734.928833 484.311096,734.931580 
	C532.477417,735.016724 580.643921,735.000977 628.810364,735.000977 
	C630.087585,735.000977 631.364868,735.001038 632.706421,735.001038 
	C632.706421,694.084839 632.706421,653.689636 632.706421,612.998962 
	C617.107117,612.998962 601.800598,612.999023 586.494141,612.999023 
	C572.759033,612.999023 572.569824,612.928894 567.836487,625.716736 
	C556.212097,657.121826 542.898315,687.754089 526.714783,717.098511 
	C525.407349,719.469177 523.772766,721.659363 522.290161,723.933411 
	C520.350830,714.024719 521.574524,704.582275 524.765808,695.784241 
	C532.583130,674.233093 541.145569,652.951111 549.496704,631.595398 
	C551.884338,625.489868 554.574646,619.502686 557.412537,612.783203 
	C394.074585,612.783203 231.657700,612.783203 68.763863,612.783203 
	C68.763863,516.958740 68.763863,421.562958 68.763863,326.214417 
	C54.673523,326.214417 41.062321,326.214417 27.236671,326.214417 
	C27.236671,444.463531 27.236671,562.497070 27.236671,681.116638 
	C29.625221,678.942932 31.426342,676.891663 33.621407,675.433411 
	C35.456779,674.214172 37.513771,672.938049 38.945858,676.683899 
	C41.425705,683.170410 43.811825,689.888855 49.964039,694.838440 
M320.794495,258.727722 
	C337.545898,282.782623 344.563385,309.130920 341.204956,338.526550 
	C339.601990,352.557068 336.507874,365.525879 328.318848,377.261780 
	C323.477478,384.200043 319.400665,391.717682 315.467163,399.229858 
	C311.971863,405.905243 307.229065,411.251007 301.154419,415.568115 
	C296.133636,419.136322 291.379730,423.129242 286.133362,426.318298 
	C279.626617,430.273407 272.959778,434.140869 265.944946,437.035065 
	C258.899780,439.941772 255.974899,438.725159 251.841431,432.517639 
	C245.394318,422.835571 238.980270,413.110352 233.055908,403.105164 
	C214.935333,372.502838 198.515350,340.854584 172.770538,315.368164 
	C162.529160,305.229553 153.087219,294.740509 138.615097,290.568329 
	C134.362091,289.342194 130.630615,286.382111 126.411659,284.947174 
	C117.920853,282.059326 109.259285,279.673492 100.280052,276.963409 
	C100.280052,379.842957 100.280052,481.257935 100.280052,582.999146 
	C101.692833,582.999146 102.828606,582.999146 103.964378,582.999146 
	C257.290314,582.999207 410.616272,582.984680 563.942139,583.091187 
	C567.432495,583.093628 568.734619,581.949341 569.892822,578.818115 
	C585.024719,537.907288 597.359985,496.118164 608.880005,454.092285 
	C620.311096,412.390472 628.264282,370.154968 627.979980,326.609039 
	C627.765137,293.713776 625.604248,261.100616 619.226685,228.762222 
	C614.764893,206.138397 602.322632,187.006851 593.443787,166.303589 
	C586.974121,151.217896 577.730469,138.569153 566.507446,126.687851 
	C560.080139,119.883636 554.714294,119.595535 547.001648,122.713844 
	C514.576355,135.823715 483.105042,150.810150 453.183380,168.981339 
	C446.969238,172.755112 441.089966,176.930603 438.058899,183.737976 
	C433.811890,193.276337 429.411865,202.818771 426.174591,212.718292 
	C420.764923,229.260818 422.266754,246.677200 421.088623,263.745911 
	C420.894348,266.560547 420.633209,269.494659 421.181702,272.216644 
	C425.219025,292.252838 429.221680,312.301300 433.690613,332.243835 
	C438.440308,353.439331 444.434998,374.017151 460.224945,390.429321 
	C466.738800,397.199921 465.156921,402.121094 456.723511,406.508698 
	C453.708252,408.077332 450.208282,409.126221 446.832397,409.476898 
	C443.277283,409.846222 440.897736,411.230133 439.200653,414.200348 
	C437.255310,417.605042 435.273651,420.988983 432.828705,425.208862 
	C431.327515,423.220673 430.142181,422.093445 429.487854,420.714294 
	C424.230530,409.633087 418.201843,398.819672 414.045227,387.332336 
	C400.358612,349.507599 395.627197,310.123169 395.946686,270.111115 
	C396.134918,246.536636 397.243500,222.969498 397.950745,198.972198 
	C397.307159,198.972198 395.488373,199.068283 393.682373,198.956879 
	C380.181763,198.124084 366.858093,196.289337 354.110229,191.494461 
	C324.849274,180.488480 304.428558,159.271378 288.276123,133.512024 
	C275.038635,112.401329 262.947144,90.565971 249.504578,69.592194 
	C241.315170,56.814682 236.609711,56.307152 223.599548,64.654984 
	C200.803268,79.281990 182.938751,98.940140 167.979858,121.265755 
	C161.625992,130.748672 162.755859,137.278305 170.828735,145.295883 
	C172.828186,147.281631 174.994308,149.172989 177.336136,150.727661 
	C186.759842,156.983826 196.225815,163.180405 205.779663,169.235703 
	C229.656403,184.368927 254.017059,198.786224 277.357361,214.702362 
	C294.322418,226.271133 308.681671,241.037369 320.794495,258.727722 
M275.958038,31.003260 
	C271.641205,31.626072 274.825745,34.004478 275.274994,35.107738 
	C282.158112,52.010395 289.164337,68.863480 296.235596,85.688751 
	C301.625946,98.514565 305.383698,112.100548 314.163300,123.345497 
	C328.828796,142.129166 343.429169,160.879456 363.168976,174.920105 
	C375.365509,183.595352 388.987640,185.464600 402.645020,185.684647 
	C409.172394,170.757568 415.473938,156.292831 421.823273,141.849106 
	C425.185303,134.201050 421.344574,126.102028 413.309540,123.957031 
	C410.738373,123.270638 408.141754,122.604996 405.668945,121.641914 
	C401.797333,120.134018 398.204498,120.010941 394.116821,121.448776 
	C388.980499,123.255486 383.531525,124.325455 378.131775,125.156807 
	C375.948517,125.492950 373.538879,124.358543 371.232239,123.893333 
	C372.081848,121.362564 372.393311,118.420517 373.927582,116.413055 
	C375.565613,114.269882 378.206940,112.719444 380.680450,111.427582 
	C384.945801,109.199844 389.282074,106.952759 393.832581,105.455032 
	C408.076843,100.766785 422.441956,96.397591 437.771912,98.572800 
	C445.682404,99.695236 447.794434,101.918434 446.001923,109.923553 
	C443.079956,122.972855 441.855194,136.496735 435.846680,148.777740 
	C434.251190,152.038895 433.225769,155.609756 432.232452,159.121536 
	C431.748383,160.832932 431.940460,162.735565 431.806946,164.862808 
	C437.711914,160.873291 442.772186,157.093033 448.169464,153.878586 
	C462.030853,145.623123 475.867493,137.298462 490.033722,129.588943 
	C511.332031,117.998039 532.594238,106.257805 554.481323,95.864815 
	C566.384216,90.212791 578.829590,86.088127 586.965210,74.871887 
	C587.112427,74.668961 587.502258,74.642029 588.377808,74.296806 
	C590.517212,77.239342 592.962891,80.167068 594.925476,83.389038 
	C599.677063,91.189819 603.620300,99.545609 608.918030,106.940720 
	C637.389709,146.684418 652.886963,191.105911 655.893433,239.629089 
	C657.487305,265.352234 656.665649,291.220459 657.115784,317.020050 
	C657.859497,359.653046 648.696350,400.662720 636.781128,441.188538 
	C625.183411,480.634064 611.024109,519.185852 595.375305,557.197632 
	C591.909729,565.615723 588.596802,574.096619 585.167053,582.664978 
	C623.337402,582.664978 661.061523,582.664978 698.646973,582.664978 
	C698.646973,398.613281 698.646973,214.896530 698.646973,31.000742 
	C557.818237,31.000742 417.342194,31.000742 275.958038,31.003260 
M149.500000,31.000223 
	C133.077423,31.000223 116.654861,31.000223 100.336067,31.000223 
	C100.336067,109.367111 100.336067,187.088470 100.336067,264.688812 
	C107.752274,265.843048 114.845840,266.811798 121.887932,268.068909 
	C141.452972,271.561554 160.505447,276.690826 178.198730,286.077576 
	C198.162613,296.668915 212.639664,313.177124 225.829971,330.869873 
	C241.437912,351.805481 256.485504,373.158264 271.845551,394.279633 
	C275.472046,399.266388 278.559235,400.028473 284.262573,397.447113 
	C286.346924,396.503723 288.424835,395.204132 290.028931,393.592529 
	C316.604248,366.893127 323.690308,338.755676 311.579926,303.244568 
	C304.199677,281.603546 289.374268,265.178467 271.921875,251.080566 
	C249.073227,232.623657 223.616379,218.083466 198.509277,203.038681 
	C184.349915,194.554047 170.496185,185.620956 158.966980,173.630142 
	C149.139725,163.409424 141.625549,152.118073 142.957993,136.931229 
	C143.864105,126.603226 149.576218,118.550415 155.380676,110.670288 
	C172.157196,87.894493 192.047607,68.010040 213.396652,49.560658 
	C220.594803,43.340187 228.129761,37.509460 236.125443,31.000223 
	C207.063034,31.000223 178.781525,31.000223 149.500000,31.000223 
M439.435547,697.011841 
	C442.140503,695.802795 445.643250,695.265686 447.361481,693.225647 
	C449.875183,690.241028 448.072174,683.427734 444.862335,680.889160 
	C441.008209,677.841064 437.594391,680.411133 435.576782,683.036316 
	C433.507843,685.728394 432.069702,689.577271 432.010010,692.949036 
	C431.952423,696.203857 435.305969,697.317566 439.435547,697.011841 
z"/>
<path fill="#20581E" opacity="1.000000" stroke="none" 
	d="
M68.531342,1.000000 
	C69.000000,98.464264 69.000000,195.928528 69.000000,293.998627 
	C46.462200,293.998627 24.199757,293.998627 1.468657,293.999329 
	C1.000000,196.451797 1.000000,98.903587 1.000000,1.000000 
	C23.352972,1.000000 45.707829,1.000000 68.531342,1.000000 
z"/>
<path fill="#20581E" opacity="1.000000" stroke="none" 
	d="
M1.000000,766.500000 
	C221.447800,766.000000 441.895599,766.000000 662.812683,766.000000 
	C662.812683,715.053833 662.812683,664.329102 662.812683,613.132019 
	C685.670776,613.132019 708.067688,613.132019 731.001343,613.132019 
	C731.001343,409.084717 731.001343,205.511017 731.000671,1.468657 
	C731.333313,1.166667 731.943848,1.315919 731.955566,1.502794 
	C732.039001,2.830884 732.000000,4.166667 732.000000,5.500000 
	C732.000000,259.333344 732.000000,513.166687 732.000000,767.000000 
	C488.333344,767.000000 244.666672,767.000000 1.000000,766.500000 
z"/>
<path fill="#20581E" opacity="1.000000" stroke="none" 
	d="
M320.576416,258.439819 
	C308.681671,241.037369 294.322418,226.271133 277.357361,214.702362 
	C254.017059,198.786224 229.656403,184.368927 205.779663,169.235703 
	C196.225815,163.180405 186.759842,156.983826 177.336136,150.727661 
	C174.994308,149.172989 172.828186,147.281631 170.828735,145.295883 
	C162.755859,137.278305 161.625992,130.748672 167.979858,121.265755 
	C182.938751,98.940140 200.803268,79.281990 223.599548,64.654984 
	C236.609711,56.307152 241.315170,56.814682 249.504578,69.592194 
	C262.947144,90.565971 275.038635,112.401329 288.276123,133.512024 
	C304.428558,159.271378 324.849274,180.488480 354.110229,191.494461 
	C366.858093,196.289337 380.181763,198.124084 393.682373,198.956879 
	C395.488373,199.068283 397.307159,198.972198 397.950745,198.972198 
	C397.243500,222.969498 396.134918,246.536636 395.946686,270.111115 
	C395.627197,310.123169 400.358612,349.507599 414.045227,387.332336 
	C418.201843,398.819672 424.230530,409.633087 429.487854,420.714294 
	C430.142181,422.093445 431.327515,423.220673 432.828705,425.208862 
	C435.273651,420.988983 437.255310,417.605042 439.200653,414.200348 
	C440.897736,411.230133 443.277283,409.846222 446.832397,409.476898 
	C450.208282,409.126221 453.708252,408.077332 456.723511,406.508698 
	C465.156921,402.121094 466.738800,397.199921 460.224945,390.429321 
	C444.434998,374.017151 438.440308,353.439331 433.690613,332.243835 
	C429.221680,312.301300 425.219025,292.252838 421.181702,272.216644 
	C420.633209,269.494659 420.894348,266.560547 421.088623,263.745911 
	C422.266754,246.677200 420.764923,229.260818 426.174591,212.718292 
	C429.411865,202.818771 433.811890,193.276337 438.058899,183.737976 
	C441.089966,176.930603 446.969238,172.755112 453.183380,168.981339 
	C483.105042,150.810150 514.576355,135.823715 547.001648,122.713844 
	C554.714294,119.595535 560.080139,119.883636 566.507446,126.687851 
	C577.730469,138.569153 586.974121,151.217896 593.443787,166.303589 
	C602.322632,187.006851 614.764893,206.138397 619.226685,228.762222 
	C625.604248,261.100616 627.765137,293.713776 627.979980,326.609039 
	C628.264282,370.154968 620.311096,412.390472 608.880005,454.092285 
	C597.359985,496.118164 585.024719,537.907288 569.892822,578.818115 
	C568.734619,581.949341 567.432495,583.093628 563.942139,583.091187 
	C410.616272,582.984680 257.290314,582.999207 103.964378,582.999146 
	C102.828606,582.999146 101.692833,582.999146 100.280052,582.999146 
	C100.280052,481.257935 100.280052,379.842957 100.280052,276.963409 
	C109.259285,279.673492 117.920853,282.059326 126.411659,284.947174 
	C130.630615,286.382111 134.362091,289.342194 138.615097,290.568329 
	C153.087219,294.740509 162.529160,305.229553 172.770538,315.368164 
	C198.515350,340.854584 214.935333,372.502838 233.055908,403.105164 
	C238.980270,413.110352 245.394318,422.835571 251.841431,432.517639 
	C255.974899,438.725159 258.899780,439.941772 265.944946,437.035065 
	C272.959778,434.140869 279.626617,430.273407 286.133362,426.318298 
	C291.379730,423.129242 296.133636,419.136322 301.154419,415.568115 
	C307.229065,411.251007 311.971863,405.905243 315.467163,399.229858 
	C319.400665,391.717682 323.477478,384.200043 328.318848,377.261780 
	C336.507874,365.525879 339.601990,352.557068 341.204956,338.526550 
	C344.563385,309.130920 337.545898,282.782623 320.576416,258.439819 
z"/>
<path fill="#21591F" opacity="1.000000" stroke="none" 
	d="
M234.133575,733.035767 
	C232.357422,733.690857 230.583313,734.910767 228.804855,734.917175 
	C196.698181,735.032288 164.591003,735.000977 132.483917,735.000977 
	C97.559235,735.000977 62.634552,735.001038 27.354473,735.001038 
	C27.354473,727.941406 27.354473,721.039795 27.354473,713.391968 
	C30.541018,718.263916 33.463753,722.732483 36.743595,727.747070 
	C38.946918,725.760498 40.630623,724.242432 42.147190,722.350342 
	C41.980053,721.976379 41.997299,722.018005 41.997299,722.018005 
	C46.509609,720.146667 47.887093,712.351196 46.018784,707.349731 
	C43.021770,699.326721 35.514141,696.677002 29.567732,692.409546 
	C26.498049,690.206726 26.509363,687.881042 27.286491,685.856873 
	C28.155016,683.594666 30.389538,680.948120 32.521988,680.406128 
	C33.895260,680.057068 36.419220,682.976746 37.959030,684.822266 
	C40.579807,687.963257 42.698807,691.523010 45.319374,694.664185 
	C46.103371,695.603882 47.855717,695.735779 49.891861,696.497375 
	C51.128357,697.617615 52.029610,698.458130 52.074833,699.342468 
	C52.226700,702.311951 52.248417,705.311279 52.007011,708.273682 
	C50.870007,722.226746 66.360924,726.935974 76.197060,724.526550 
	C77.038292,724.320496 77.594406,722.950439 78.644127,722.157349 
	C80.380066,721.171143 81.754845,720.148682 83.496513,719.105103 
	C89.419518,714.708923 91.128563,708.241516 92.895332,701.106934 
	C94.110909,704.972290 95.057205,707.981323 95.994644,711.376709 
	C96.579361,719.326599 105.729774,724.372314 111.765190,724.795593 
	C115.898666,725.085388 119.271690,723.786255 121.509010,719.247803 
	C119.931839,719.247803 118.518600,718.803650 117.880280,719.319153 
	C113.401657,722.935791 109.445396,721.057434 105.813271,718.160522 
	C100.737289,714.112000 97.839111,708.313965 97.501968,702.176575 
	C97.249405,697.579163 99.558632,692.840881 100.837502,687.724182 
	C95.474571,688.749756 96.264992,692.621094 95.561180,696.006470 
	C92.072411,690.563721 89.609779,684.463623 85.694504,679.512268 
	C80.428703,672.852905 70.770409,673.453064 65.374680,679.847168 
	C62.004089,682.549805 58.998936,685.273804 55.699524,688.210571 
	C54.076038,690.774963 53.940903,694.265503 49.982204,694.109558 
	C43.811825,689.888855 41.425705,683.170410 38.945858,676.683899 
	C37.513771,672.938049 35.456779,674.214172 33.621407,675.433411 
	C31.426342,676.891663 29.625221,678.942932 27.236671,681.116638 
	C27.236671,562.497070 27.236671,444.463531 27.236671,326.214417 
	C41.062321,326.214417 54.673523,326.214417 68.763863,326.214417 
	C68.763863,421.562958 68.763863,516.958740 68.763863,612.783203 
	C231.657700,612.783203 394.074585,612.783203 557.412537,612.783203 
	C554.574646,619.502686 551.884338,625.489868 549.496704,631.595398 
	C541.145569,652.951111 532.583130,674.233093 524.765808,695.784241 
	C521.574524,704.582275 520.350830,714.024719 522.290161,723.933411 
	C523.772766,721.659363 525.407349,719.469177 526.714783,717.098511 
	C542.898315,687.754089 556.212097,657.121826 567.836487,625.716736 
	C572.569824,612.928894 572.759033,612.999023 586.494141,612.999023 
	C601.800598,612.999023 617.107117,612.998962 632.706421,612.998962 
	C632.706421,653.689636 632.706421,694.084839 632.706421,735.001038 
	C631.364868,735.001038 630.087585,735.000977 628.810364,735.000977 
	C580.643921,735.000977 532.477417,735.016724 484.311096,734.931580 
	C482.733215,734.928833 479.474213,736.537354 480.234222,732.183411 
	C476.759277,732.438782 473.327667,732.691040 469.178375,732.606079 
	C467.916748,726.114746 466.894745,719.951233 467.014893,713.810059 
	C467.082886,710.334839 468.396027,706.498901 470.267059,703.530640 
	C473.392670,698.572205 477.929596,698.826294 481.126068,703.735718 
	C483.874420,707.957092 485.868347,712.728943 488.969513,716.644714 
	C492.190277,720.711487 496.339905,724.042603 500.239624,728.021484 
	C506.651459,733.651550 514.301208,734.099792 515.499146,730.346313 
	C510.620239,729.249268 505.663208,728.134644 500.782745,726.676514 
	C499.281281,724.774597 497.602875,723.303467 496.152679,721.634094 
	C494.626129,719.876892 493.063721,718.068359 491.961456,716.040588 
	C488.584625,709.828491 485.420990,703.500488 481.869781,696.627930 
	C486.052582,691.641235 494.059235,687.239380 491.386566,676.759521 
	C487.735962,678.117737 484.417358,679.352478 479.895996,681.034729 
	C483.458771,682.135376 485.597382,682.796021 487.816162,683.481445 
	C482.669067,691.457886 476.067017,696.984314 466.932861,700.252014 
	C466.509460,692.406921 466.121216,685.213135 465.732971,678.019348 
	C465.021515,677.484009 464.310089,676.948608 463.598663,676.413208 
	C462.750427,678.037476 461.953888,679.691589 461.037506,681.276367 
	C460.304352,682.544250 459.425537,683.727966 458.611328,684.949036 
	C460.044556,685.169617 461.477814,685.390198 463.533661,685.706665 
	C463.533661,690.164734 463.472687,694.648315 463.547302,699.129639 
	C463.674438,706.765564 463.810699,714.403198 464.128326,722.032410 
	C464.190704,723.531494 464.652527,725.618286 465.693298,726.353088 
	C468.272888,728.174438 467.704132,729.784912 466.213226,731.732483 
	C463.926575,729.146973 460.639465,726.925720 459.540863,723.907715 
	C456.247772,714.860962 451.284821,707.099243 443.964386,700.419617 
	C445.728241,699.117126 447.034027,697.541138 448.663513,697.058777 
	C454.728271,695.263611 452.895508,690.579712 452.846191,686.530029 
	C452.780182,681.106995 449.952423,677.451721 445.139160,675.397461 
	C444.168243,674.983215 442.683075,675.956909 441.431274,675.971497 
	C439.871399,675.989746 438.257263,675.348022 436.756439,675.578003 
	C433.922455,676.012329 431.148834,676.851929 428.377686,677.622253 
	C428.304932,677.642517 428.550323,678.807251 428.647308,679.438232 
	C429.307312,679.141174 429.967346,678.844177 431.437866,678.182556 
	C430.024353,682.329651 429.255188,686.132568 427.489746,689.396606 
	C424.965576,694.063477 426.530151,698.042542 428.067566,702.408813 
	C430.147644,708.316223 431.720764,714.402161 433.532257,720.481750 
	C431.353668,721.318604 429.995972,721.840149 428.638306,722.361694 
	C428.585876,722.709045 428.533417,723.056396 428.480988,723.403748 
	C430.772827,724.029480 433.064667,724.655212 435.688110,725.371521 
	C438.235474,716.226685 436.770660,708.220825 432.732697,700.325745 
	C440.956604,698.767761 444.029327,704.403198 447.138428,709.271729 
	C451.128967,715.520203 454.403290,722.221741 458.192383,728.605774 
	C459.426178,730.684509 461.306427,732.379578 463.523926,734.997314 
	C387.934204,734.997314 312.967041,734.997314 237.460541,734.583740 
	C238.254211,725.103760 239.587204,716.037292 241.318024,706.883911 
	C242.816116,708.773254 244.477951,710.635193 244.908340,712.747925 
	C246.066223,718.431885 249.785522,721.778442 254.645386,723.822205 
	C258.883667,725.604553 263.442169,725.933533 268.682648,723.236572 
	C266.747742,722.907410 265.652283,722.453369 264.639526,722.594238 
	C259.701996,723.280945 256.195282,721.193237 253.611664,717.195618 
	C252.058624,714.792542 249.818497,712.514343 249.221893,709.877991 
	C247.935150,704.191833 252.774353,705.301758 256.339905,704.791687 
	C260.742584,703.903870 264.744965,702.960876 268.635498,702.044250 
	C264.124725,698.847168 259.065826,699.279846 255.547394,703.165649 
	C252.850677,702.583984 250.556824,702.082703 246.771515,701.255554 
	C249.312592,696.864014 251.626556,692.864990 254.303833,688.806396 
	C259.677979,685.620422 265.052338,684.213928 271.160278,685.579712 
	C273.284393,686.986694 275.202667,688.117859 277.120941,689.249084 
	C277.387878,688.875305 277.654816,688.501587 277.921753,688.127808 
	C276.434570,685.015747 274.947418,681.903625 273.760590,679.420044 
	C272.959991,680.509094 271.961304,681.867676 270.618530,683.007935 
	C263.139130,681.023621 257.103363,683.274658 251.357040,687.942017 
	C249.185883,690.576111 247.185547,693.032654 245.597519,695.731750 
	C243.841888,698.715881 242.463776,701.922180 240.931549,704.596436 
	C241.070053,695.930359 238.400055,688.663513 232.864807,681.686707 
	C231.099045,682.411255 229.020752,683.145813 227.047867,684.098572 
	C223.137634,685.987122 219.401184,689.271729 215.380524,689.636169 
	C210.219025,690.103943 209.261490,692.819153 209.139359,696.555298 
	C208.928635,703.001526 208.993423,709.472961 209.342468,715.912170 
	C209.456528,718.016602 210.613358,720.167542 211.692429,722.070923 
	C212.191086,722.950623 213.647949,723.287109 214.670380,723.869873 
	C215.040054,722.477112 216.138382,720.737610 215.666306,719.745361 
	C211.119202,710.187256 210.310440,700.740723 215.191940,692.106750 
	C217.898331,690.959961 219.804993,689.859070 221.858414,689.349731 
	C225.034607,688.561768 229.066177,685.839050 231.181747,690.179749 
	C233.719131,695.386169 236.563629,701.093201 236.725494,706.657532 
	C236.980301,715.417725 235.106293,724.239868 234.133575,733.035767 
M369.915741,675.787109 
	C370.563599,676.321777 371.211487,676.856384 372.051086,678.099304 
	C379.530182,693.765686 376.903992,708.258789 366.306793,721.980286 
	C365.871979,722.046204 365.437134,722.112183 364.356018,721.941162 
	C363.307312,721.492004 362.258606,721.042847 361.259399,719.863464 
	C355.206482,716.479553 355.222717,716.487793 358.681366,709.672607 
	C359.341461,708.371948 359.839691,706.986450 360.373840,705.624817 
	C362.314056,700.678711 359.731171,693.472534 355.210236,691.179016 
	C356.240570,699.831360 357.811493,704.670227 351.039215,715.628296 
	C349.712646,717.774780 347.176697,719.173889 345.056183,720.177368 
	C340.268188,715.472412 338.552429,709.711853 338.794067,703.095459 
	C339.012695,697.109192 338.840240,691.108643 338.840240,683.496704 
	C334.160736,688.298584 330.544434,692.009460 326.928162,695.720337 
	C327.390137,696.161316 327.852081,696.602234 328.314056,697.043152 
	C329.936310,695.327820 331.558533,693.612488 333.978912,691.053223 
	C333.978912,697.152649 333.665100,702.079346 334.060455,706.948303 
	C334.526459,712.686584 336.745941,717.739197 342.234222,721.670105 
	C343.857178,724.342834 347.181122,726.508789 348.884918,724.060852 
	C352.680084,718.607971 356.673767,721.013611 360.961975,722.895752 
	C362.516296,725.055298 364.070648,727.214844 366.142181,730.093018 
	C371.902130,720.144165 377.170013,711.045227 383.183807,700.657898 
	C382.013153,714.425720 385.784851,723.820435 400.080811,724.963562 
	C407.757294,725.577209 409.117828,724.870361 410.926300,720.220032 
	C410.335114,720.448914 409.974976,720.619629 409.597229,720.730103 
	C399.327576,723.733887 393.256195,721.713440 388.975342,711.541687 
	C386.799561,706.371765 387.739532,699.890564 387.850677,693.864197 
	C388.229523,693.230591 388.608368,692.597046 389.117706,691.278442 
	C390.043121,690.172913 390.968536,689.067383 392.543182,687.885132 
	C393.027374,687.252563 393.511566,686.620056 394.155670,685.511108 
	C394.432922,685.339355 394.710175,685.167603 395.618591,684.893188 
	C396.077698,684.258057 396.536774,683.622925 397.280823,682.402954 
	C398.195068,681.604919 399.109314,680.806824 400.921661,679.942383 
	C403.613922,680.034241 406.306213,680.126038 409.159149,680.836304 
	C409.860687,681.192017 410.562225,681.547729 411.881775,681.994995 
	C412.586212,682.334961 413.290619,682.674866 414.106873,683.643066 
	C414.748138,684.091858 415.389404,684.540649 416.639313,685.302917 
	C417.772827,687.498413 418.906342,689.693909 420.085541,692.493408 
	C420.624969,692.996765 421.164368,693.500183 421.898926,694.821594 
	C419.879700,701.214111 417.860443,707.606689 415.304626,714.090088 
	C415.195129,714.723999 415.085602,715.357849 414.938416,716.579712 
	C414.850708,717.659790 414.762970,718.739868 414.671448,719.866821 
	C421.298126,714.763123 422.897186,707.007629 424.740662,699.761292 
	C426.928894,691.159851 422.268127,684.208923 416.476471,678.479309 
	C410.894135,672.956787 401.979370,673.935547 396.095612,679.908142 
	C392.000183,682.941956 386.817902,684.992126 385.991364,691.022644 
	C385.991364,691.022644 386.027100,691.049805 385.540985,691.497253 
	C385.102020,692.336548 384.663086,693.175842 384.036896,694.853516 
	C383.787048,695.655212 383.537170,696.456970 383.287292,697.258667 
	C381.362701,688.704468 379.100525,680.646301 372.153656,673.909729 
	C370.637146,673.113586 369.120636,672.317444 367.604156,671.521301 
	C367.295776,672.063660 366.987427,672.605957 366.679047,673.148254 
	C367.720306,673.790466 368.761566,674.432678 369.915741,675.787109 
M397.951904,702.849915 
	C398.173462,704.159180 398.395050,705.468506 398.616638,706.777771 
	C399.116913,706.926636 399.617188,707.075562 400.117462,707.224426 
	C401.086731,705.505249 402.201447,703.839355 402.872101,702.010620 
	C402.975403,701.729004 401.036774,700.698547 399.397980,700.114014 
	C398.939850,700.765137 398.481750,701.416199 397.951904,702.849915 
M141.102997,682.776917 
	C142.687897,683.272339 144.272797,683.767822 145.857697,684.263306 
	C145.653778,682.428162 145.449860,680.592957 145.245941,678.757812 
	C143.825165,679.160889 142.404373,679.563904 140.279572,679.757568 
	C140.439041,677.906982 140.598511,676.056396 140.757980,674.205811 
	C140.365891,674.035645 139.973816,673.865540 139.581726,673.695435 
	C138.661819,676.698975 133.423187,677.184326 135.491318,682.066772 
	C137.518784,682.066772 139.241257,682.066772 141.102997,682.776917 
M193.859222,724.081482 
	C190.840897,707.600647 192.137848,691.840088 203.076157,677.688782 
	C202.560516,677.334961 202.044876,676.981140 201.529236,676.627319 
	C197.144745,677.073669 192.760239,677.520081 188.375748,677.966492 
	C188.428741,678.503723 188.481750,679.040955 188.534744,679.578186 
	C190.287354,679.749146 192.039948,679.920166 194.478073,680.158020 
	C186.906723,696.238281 185.445862,712.718750 187.492203,729.080444 
	C193.782333,729.080444 199.386337,729.080444 205.553513,729.493835 
	C206.909927,729.604675 208.266327,729.715515 209.622726,729.826355 
	C209.713684,729.339600 209.804642,728.852844 209.895584,728.366150 
	C208.252014,727.952148 206.608444,727.538147 204.521484,727.000977 
	C204.521484,727.000977 204.062744,726.964294 203.673798,726.297607 
	C200.469635,725.828552 197.265472,725.359497 193.859222,724.081482 
M302.270355,721.922485 
	C300.895264,721.196777 299.360931,720.669128 298.171509,719.712524 
	C291.421417,714.284058 290.621552,706.673889 292.461700,699.242432 
	C295.059540,688.751221 298.517242,683.088440 310.396057,685.036865 
	C316.284332,686.002563 321.123138,683.654053 325.913116,680.467285 
	C322.945038,680.103760 320.068054,680.479126 317.183655,680.784973 
	C314.351257,681.085083 311.264221,682.163147 308.719330,681.422058 
	C299.744659,678.808289 291.195007,679.922607 282.722076,683.130188 
	C282.180206,683.335327 282.010773,684.524353 281.237915,686.173645 
	C286.786255,684.921753 291.379547,683.885376 295.972839,682.848938 
	C296.117462,683.294006 296.262115,683.739136 296.406769,684.184204 
	C291.922760,688.783875 286.374939,692.764587 286.438751,700.092346 
	C286.461761,702.735474 286.761169,705.377380 286.963501,708.017578 
	C287.645386,716.917419 293.896942,723.405029 303.865814,724.914246 
	C305.842590,724.989807 307.821594,725.028564 309.795746,725.147522 
	C316.579926,725.556396 320.602722,721.693115 323.455811,716.011902 
	C320.316528,717.490845 317.789856,720.336487 314.678711,721.305420 
	C311.048798,722.435913 306.908356,721.926941 302.270355,721.922485 
M168.814301,688.792603 
	C168.988953,688.997253 169.163620,689.201843 169.475998,690.158630 
	C168.983459,692.105591 168.490921,694.052612 167.341827,696.225220 
	C165.871567,698.081238 164.401321,699.937256 162.214371,701.949463 
	C156.634003,706.481384 156.110550,712.616028 157.416901,718.934204 
	C158.517853,724.259033 165.016876,725.826233 168.625641,721.874817 
	C170.934525,719.346619 173.007370,716.602966 175.380371,713.719788 
	C177.170120,722.028503 179.004578,724.100525 184.774994,724.619934 
	C183.053406,721.807495 180.441010,719.223572 179.841507,716.235657 
	C178.227234,708.190369 177.414993,699.979797 176.400620,691.820374 
	C175.928696,688.024231 175.881958,684.171082 175.310760,680.393860 
	C175.128342,679.187561 173.881729,677.228760 173.117157,677.226440 
	C171.791351,677.222412 169.730896,678.155457 169.251328,679.252075 
	C165.934067,686.837646 160.358383,691.260071 150.416992,692.718262 
	C153.150787,695.518738 155.130493,697.722473 157.333710,699.673828 
	C157.852493,700.133301 159.124924,699.741882 160.607681,699.741882 
	C159.691208,698.200012 159.035416,697.096680 158.192642,695.678772 
	C161.578415,693.163452 164.943527,690.663452 168.814301,688.792603 
M141.405319,700.229675 
	C142.717667,695.667786 144.030014,691.105896 145.338928,686.555908 
	C138.604691,685.276794 133.317154,687.506653 129.523895,693.585693 
	C131.854034,693.802185 134.041199,694.005371 136.589355,694.242065 
	C136.148407,698.024109 135.182877,701.514343 135.475296,704.895935 
	C135.939072,710.259216 136.152618,716.087341 138.447311,720.745789 
	C141.930298,727.816772 148.609558,731.589600 156.764908,731.755127 
	C158.091324,731.782043 159.440567,730.685181 160.779266,730.107788 
	C159.719986,729.036560 159.065277,728.947571 158.409653,728.940247 
	C147.490463,728.818054 139.002884,719.788513 140.483963,709.023254 
	C140.845963,706.392029 140.995010,703.731384 141.405319,700.229675 
M111.752281,694.064270 
	C114.717911,691.815491 117.683540,689.566711 120.649025,687.318115 
	C116.303711,681.523071 111.265564,678.746216 104.378006,683.029785 
	C105.503220,683.274963 106.727394,682.843689 107.698357,683.168762 
	C109.722481,683.846436 111.612701,684.924072 113.557922,685.837402 
	C112.901489,687.174744 112.046654,688.455750 111.645683,689.865723 
	C111.262039,691.214905 111.350151,692.698181 111.752281,694.064270 
M400.672607,694.960693 
	C400.811157,696.276550 400.949707,697.592468 401.088257,698.908325 
	C401.654785,699.046387 402.221313,699.184448 402.787842,699.322510 
	C403.577118,697.785583 404.566895,696.308228 405.050262,694.680420 
	C405.226715,694.086243 404.199188,693.134583 403.720978,692.346069 
	C402.756775,692.970520 401.792542,693.595032 400.672607,694.960693 
z"/>
<path fill="#21581E" opacity="1.000000" stroke="none" 
	d="
M276.412109,31.002001 
	C417.342194,31.000742 557.818237,31.000742 698.646973,31.000742 
	C698.646973,214.896530 698.646973,398.613281 698.646973,582.664978 
	C661.061523,582.664978 623.337402,582.664978 585.167053,582.664978 
	C588.596802,574.096619 591.909729,565.615723 595.375305,557.197632 
	C611.024109,519.185852 625.183411,480.634064 636.781128,441.188538 
	C648.696350,400.662720 657.859497,359.653046 657.115784,317.020050 
	C656.665649,291.220459 657.487305,265.352234 655.893433,239.629089 
	C652.886963,191.105911 637.389709,146.684418 608.918030,106.940720 
	C603.620300,99.545609 599.677063,91.189819 594.925476,83.389038 
	C592.962891,80.167068 590.517212,77.239342 588.377808,74.296806 
	C587.502258,74.642029 587.112427,74.668961 586.965210,74.871887 
	C578.829590,86.088127 566.384216,90.212791 554.481323,95.864815 
	C532.594238,106.257805 511.332031,117.998039 490.033722,129.588943 
	C475.867493,137.298462 462.030853,145.623123 448.169464,153.878586 
	C442.772186,157.093033 437.711914,160.873291 431.806946,164.862808 
	C431.940460,162.735565 431.748383,160.832932 432.232452,159.121536 
	C433.225769,155.609756 434.251190,152.038895 435.846680,148.777740 
	C441.855194,136.496735 443.079956,122.972855 446.001923,109.923553 
	C447.794434,101.918434 445.682404,99.695236 437.771912,98.572800 
	C422.441956,96.397591 408.076843,100.766785 393.832581,105.455032 
	C389.282074,106.952759 384.945801,109.199844 380.680450,111.427582 
	C378.206940,112.719444 375.565613,114.269882 373.927582,116.413055 
	C372.393311,118.420517 372.081848,121.362564 371.232239,123.893326 
	C373.538879,124.358543 375.948517,125.492950 378.131775,125.156807 
	C383.531525,124.325455 388.980499,123.255486 394.116821,121.448776 
	C398.204498,120.010941 401.797333,120.134018 405.668945,121.641914 
	C408.141754,122.604996 410.738373,123.270638 413.309540,123.957031 
	C421.344574,126.102028 425.185303,134.201050 421.823273,141.849106 
	C415.473938,156.292831 409.172394,170.757568 402.645020,185.684647 
	C388.987640,185.464600 375.365509,183.595352 363.168976,174.920105 
	C343.429169,160.879456 328.828796,142.129166 314.163300,123.345497 
	C305.383698,112.100548 301.625946,98.514565 296.235596,85.688751 
	C289.164337,68.863480 282.158112,52.010395 275.274994,35.107738 
	C274.825745,34.004478 271.641205,31.626072 276.412109,31.002001 
z"/>
<path fill="#21581E" opacity="1.000000" stroke="none" 
	d="
M150.000000,31.000223 
	C178.781525,31.000223 207.063034,31.000223 236.125443,31.000223 
	C228.129761,37.509460 220.594803,43.340187 213.396652,49.560658 
	C192.047607,68.010040 172.157196,87.894493 155.380676,110.670288 
	C149.576218,118.550415 143.864105,126.603226 142.957993,136.931229 
	C141.625549,152.118073 149.139725,163.409424 158.966980,173.630142 
	C170.496185,185.620956 184.349915,194.554047 198.509277,203.038681 
	C223.616379,218.083466 249.073227,232.623657 271.921875,251.080566 
	C289.374268,265.178467 304.199677,281.603546 311.579926,303.244568 
	C323.690308,338.755676 316.604248,366.893127 290.028931,393.592529 
	C288.424835,395.204132 286.346924,396.503723 284.262573,397.447113 
	C278.559235,400.028473 275.472046,399.266388 271.845551,394.279633 
	C256.485504,373.158264 241.437912,351.805481 225.829971,330.869873 
	C212.639664,313.177124 198.162613,296.668915 178.198730,286.077576 
	C160.505447,276.690826 141.452972,271.561554 121.887932,268.068909 
	C114.845840,266.811798 107.752274,265.843048 100.336067,264.688812 
	C100.336067,187.088470 100.336067,109.367111 100.336067,31.000223 
	C116.654861,31.000223 133.077423,31.000223 150.000000,31.000223 
z"/>
<path fill="#E1D9B6" opacity="1.000000" stroke="none" 
	d="
M500.083282,727.695496 
	C496.339905,724.042603 492.190277,720.711487 488.969513,716.644714 
	C485.868347,712.728943 483.874420,707.957092 481.126068,703.735718 
	C477.929596,698.826294 473.392670,698.572205 470.267059,703.530640 
	C468.396027,706.498901 467.082886,710.334839 467.014893,713.810059 
	C466.894745,719.951233 467.916748,726.114746 468.739288,732.630371 
	C468.188385,732.720825 467.358856,732.449890 466.371277,731.955688 
	C467.704132,729.784912 468.272888,728.174438 465.693298,726.353088 
	C464.652527,725.618286 464.190704,723.531494 464.128326,722.032410 
	C463.810699,714.403198 463.674438,706.765564 463.547302,699.129639 
	C463.472687,694.648315 463.533661,690.164734 463.533661,685.706665 
	C461.477814,685.390198 460.044556,685.169617 458.611328,684.949036 
	C459.425537,683.727966 460.304352,682.544250 461.037506,681.276367 
	C461.953888,679.691589 462.750427,678.037476 463.598663,676.413208 
	C464.310089,676.948608 465.021515,677.484009 465.732971,678.019348 
	C466.121216,685.213135 466.509460,692.406921 466.932861,700.252014 
	C476.067017,696.984314 482.669067,691.457886 487.816162,683.481445 
	C485.597382,682.796021 483.458771,682.135376 479.895996,681.034729 
	C484.417358,679.352478 487.735962,678.117737 491.386566,676.759521 
	C494.059235,687.239380 486.052582,691.641235 481.869781,696.627930 
	C485.420990,703.500488 488.584625,709.828491 491.961456,716.040588 
	C493.063721,718.068359 494.626129,719.876892 496.152679,721.634094 
	C497.602875,723.303467 499.281281,724.774597 500.638794,726.747559 
	C500.237000,727.296265 500.125336,727.473999 500.083282,727.695496 
z"/>
<path fill="#E7DDBB" opacity="1.000000" stroke="none" 
	d="
M234.365189,733.241821 
	C235.106293,724.239868 236.980301,715.417725 236.725494,706.657532 
	C236.563629,701.093201 233.719131,695.386169 231.181747,690.179749 
	C229.066177,685.839050 225.034607,688.561768 221.858414,689.349731 
	C219.804993,689.859070 217.898331,690.959961 215.191940,692.106750 
	C210.310440,700.740723 211.119202,710.187256 215.666306,719.745361 
	C216.138382,720.737610 215.040054,722.477112 214.670380,723.869873 
	C213.647949,723.287109 212.191086,722.950623 211.692429,722.070923 
	C210.613358,720.167542 209.456528,718.016602 209.342468,715.912170 
	C208.993423,709.472961 208.928635,703.001526 209.139359,696.555298 
	C209.261490,692.819153 210.219025,690.103943 215.380524,689.636169 
	C219.401184,689.271729 223.137634,685.987122 227.047867,684.098572 
	C229.020752,683.145813 231.099045,682.411255 232.864807,681.686707 
	C238.400055,688.663513 241.070053,695.930359 240.734634,704.747009 
	C240.658356,705.878784 240.789276,706.424805 240.920197,706.970825 
	C239.587204,716.037292 238.254211,725.103760 236.996552,734.569946 
	C236.246872,734.462402 235.421829,733.955139 234.365189,733.241821 
z"/>
<path fill="#275D23" opacity="1.000000" stroke="none" 
	d="
M41.999710,721.985596 
	C39.477077,720.228821 36.099186,718.997620 34.558594,716.590576 
	C30.831276,710.766907 23.388874,706.084290 27.863470,697.076477 
	C34.510616,700.232544 41.574871,703.808411 43.658604,711.992737 
	C44.375298,714.807678 42.046936,718.397949 41.553474,721.826050 
	C41.997299,722.018005 41.980053,721.976379 41.999710,721.985596 
z"/>
<path fill="#275D23" opacity="1.000000" stroke="none" 
	d="
M439.002319,697.012451 
	C435.305969,697.317566 431.952423,696.203857 432.010010,692.949036 
	C432.069702,689.577271 433.507843,685.728394 435.576782,683.036316 
	C437.594391,680.411133 441.008209,677.841064 444.862335,680.889160 
	C448.072174,683.427734 449.875183,690.241028 447.361481,693.225647 
	C445.643250,695.265686 442.140503,695.802795 439.002319,697.012451 
z"/>
<path fill="#E1D9B6" opacity="1.000000" stroke="none" 
	d="
M78.282959,722.121033 
	C77.594406,722.950439 77.038292,724.320496 76.197060,724.526550 
	C66.360924,726.935974 50.870007,722.226746 52.007011,708.273682 
	C52.248417,705.311279 52.226700,702.311951 52.074833,699.342468 
	C52.029610,698.458130 51.128357,697.617615 50.287285,696.526978 
	C49.958172,695.810791 49.961105,695.324646 49.973122,694.473999 
	C53.940903,694.265503 54.076038,690.774963 56.013145,688.251648 
	C57.106884,688.445557 57.592751,688.811035 58.073814,689.573242 
	C57.128883,692.927612 55.928612,695.830933 55.298462,698.853149 
	C53.562195,707.180603 57.120205,715.817017 64.699974,719.410339 
	C68.278229,721.106689 72.861000,720.684082 77.171188,721.416016 
	C77.663483,721.780701 77.973213,721.950867 78.282959,722.121033 
z"/>
<path fill="#E7DDBB" opacity="1.000000" stroke="none" 
	d="
M168.308655,688.163452 
	C164.943527,690.663452 161.578415,693.163452 158.192642,695.678772 
	C159.035416,697.096680 159.691208,698.200012 160.607681,699.741882 
	C159.124924,699.741882 157.852493,700.133301 157.333710,699.673828 
	C155.130493,697.722473 153.150787,695.518738 150.416992,692.718262 
	C160.358383,691.260071 165.934067,686.837646 169.251328,679.252075 
	C169.730896,678.155457 171.791351,677.222412 173.117157,677.226440 
	C173.881729,677.228760 175.128342,679.187561 175.310760,680.393860 
	C175.881958,684.171082 175.928696,688.024231 176.400620,691.820374 
	C177.414993,699.979797 178.227234,708.190369 179.841507,716.235657 
	C180.441010,719.223572 183.053406,721.807495 184.774994,724.619934 
	C179.004578,724.100525 177.170120,722.028503 175.380371,713.719788 
	C173.007370,716.602966 170.934525,719.346619 168.625641,721.874817 
	C165.016876,725.826233 158.517853,724.259033 157.416901,718.934204 
	C156.110550,712.616028 156.634003,706.481384 162.605377,702.301758 
	C163.040970,703.516052 163.085556,704.378113 163.116928,705.617554 
	C162.183151,708.963135 160.692871,711.903503 160.545807,714.909546 
	C160.450531,716.857178 162.317642,718.900818 163.305450,720.901428 
	C165.176071,719.442871 167.939880,718.360596 168.743500,716.452637 
	C170.835403,711.485962 172.356293,706.221436 173.531799,700.947937 
	C174.217865,697.870117 173.255600,695.203430 168.920395,696.907227 
	C168.530701,696.449829 168.264542,696.224670 167.998383,695.999573 
	C168.490921,694.052612 168.983459,692.105591 169.815155,689.766724 
	C170.368378,688.115540 170.582443,686.856140 170.796509,685.596802 
	C170.409943,685.526306 170.023392,685.455811 169.636841,685.385376 
	C169.194107,686.311401 168.751389,687.237427 168.308655,688.163452 
z"/>
<path fill="#E0D8B5" opacity="1.000000" stroke="none" 
	d="
M372.487305,674.593140 
	C379.100525,680.646301 381.362701,688.704468 383.287292,697.258667 
	C383.537170,696.456970 383.787048,695.655212 384.447754,694.358459 
	C385.248077,692.925537 385.637573,691.987671 386.027100,691.049805 
	C386.027100,691.049805 385.991364,691.022644 386.256226,691.179810 
	C386.732513,691.656067 386.943939,691.975159 387.179626,692.578613 
	C387.226227,693.242737 387.248627,693.622437 387.270996,694.002136 
	C387.739532,699.890564 386.799561,706.371765 388.975342,711.541687 
	C393.256195,721.713440 399.327576,723.733887 409.597229,720.730103 
	C409.974976,720.619629 410.335114,720.448914 410.926300,720.220032 
	C409.117828,724.870361 407.757294,725.577209 400.080811,724.963562 
	C385.784851,723.820435 382.013153,714.425720 383.183807,700.657898 
	C377.170013,711.045227 371.902130,720.144165 366.142181,730.093018 
	C364.070648,727.214844 362.516296,725.055298 361.011261,722.141846 
	C361.110321,721.123169 361.160126,720.858398 361.209900,720.593689 
	C362.258606,721.042847 363.307312,721.492004 364.739624,722.335388 
	C365.468811,722.979004 365.814392,723.228333 366.159912,723.477661 
	C366.428314,722.952759 366.696716,722.427795 366.965149,721.902832 
	C376.903992,708.258789 379.530182,693.765686 371.996033,677.347900 
	C371.959808,676.064880 371.978607,675.533264 372.119812,674.899414 
	C372.242188,674.797180 372.487305,674.593140 372.487305,674.593140 
z"/>
<path fill="#E0D8B5" opacity="1.000000" stroke="none" 
	d="
M302.973663,724.649841 
	C293.896942,723.405029 287.645386,716.917419 286.963501,708.017578 
	C286.761169,705.377380 286.461761,702.735474 286.438751,700.092346 
	C286.374939,692.764587 291.922760,688.783875 296.406769,684.184204 
	C296.262115,683.739136 296.117462,683.294006 295.972839,682.848938 
	C291.379547,683.885376 286.786255,684.921753 281.237915,686.173645 
	C282.010773,684.524353 282.180206,683.335327 282.722076,683.130188 
	C291.195007,679.922607 299.744659,678.808289 308.719330,681.422058 
	C311.264221,682.163147 314.351257,681.085083 317.183655,680.784973 
	C320.068054,680.479126 322.945038,680.103760 325.913116,680.467285 
	C321.123138,683.654053 316.284332,686.002563 310.396057,685.036865 
	C298.517242,683.088440 295.059540,688.751221 292.461700,699.242432 
	C290.621552,706.673889 291.421417,714.284058 298.171509,719.712524 
	C299.360931,720.669128 300.895264,721.196777 302.633606,722.341003 
	C302.989136,723.389648 302.981384,724.019714 302.973663,724.649841 
z"/>
<path fill="#E7DDBB" opacity="1.000000" stroke="none" 
	d="
M204.062744,726.964294 
	C204.062744,726.964294 204.521484,727.000977 204.770813,727.388000 
	C205.010193,728.210144 205.000275,728.645325 204.990341,729.080444 
	C199.386337,729.080444 193.782333,729.080444 187.492203,729.080444 
	C185.445862,712.718750 186.906723,696.238281 194.478073,680.158020 
	C192.039948,679.920166 190.287354,679.749146 188.534744,679.578186 
	C188.481750,679.040955 188.428741,678.503723 188.375748,677.966492 
	C192.760239,677.520081 197.144745,677.073669 201.529236,676.627319 
	C202.044876,676.981140 202.560516,677.334961 203.076157,677.688782 
	C192.137848,691.840088 190.840897,707.600647 194.036148,724.881348 
	C197.496292,726.108948 200.779526,726.536621 204.062744,726.964294 
z"/>
<path fill="#DBD5B1" opacity="1.000000" stroke="none" 
	d="
M141.323639,700.656982 
	C140.995010,703.731384 140.845963,706.392029 140.483963,709.023254 
	C139.002884,719.788513 147.490463,728.818054 158.409653,728.940247 
	C159.065277,728.947571 159.719986,729.036560 160.779266,730.107788 
	C159.440567,730.685181 158.091324,731.782043 156.764908,731.755127 
	C148.609558,731.589600 141.930298,727.816772 138.447311,720.745789 
	C136.152618,716.087341 135.939072,710.259216 135.475296,704.895935 
	C135.182877,701.514343 136.148407,698.024109 136.589355,694.242065 
	C134.041199,694.005371 131.854034,693.802185 129.523895,693.585693 
	C133.317154,687.506653 138.604691,685.276794 145.338928,686.555908 
	C144.030014,691.105896 142.717667,695.667786 141.323639,700.656982 
z"/>
<path fill="#D4D0AC" opacity="1.000000" stroke="none" 
	d="
M65.740112,679.868469 
	C70.770409,673.453064 80.428703,672.852905 85.694504,679.512268 
	C89.609779,684.463623 92.072411,690.563721 95.583130,696.481506 
	C95.990639,701.537354 95.997070,706.263916 96.003494,710.990417 
	C95.057205,707.981323 94.110909,704.972290 92.895332,701.106934 
	C91.128563,708.241516 89.419518,714.708923 83.282410,718.892578 
	C82.558838,718.559387 82.416245,718.417542 82.478668,717.987000 
	C82.949379,716.918335 83.012650,715.963318 83.512291,715.385864 
	C88.172012,710.000427 89.411072,703.549988 89.479256,696.720154 
	C89.544800,690.155396 86.969650,684.584106 80.985031,682.082092 
	C76.901810,680.375061 71.952568,680.739441 66.977623,680.102051 
	C66.289833,679.973694 66.014969,679.921082 65.740112,679.868469 
z"/>
<path fill="#E1D9B6" opacity="1.000000" stroke="none" 
	d="
M241.318008,706.883911 
	C240.789276,706.424805 240.658356,705.878784 240.724335,705.182251 
	C242.463776,701.922180 243.841888,698.715881 245.597519,695.731750 
	C247.185547,693.032654 249.185883,690.576111 251.670746,687.989258 
	C252.871567,688.265930 253.406067,688.565918 253.940536,688.865967 
	C251.626556,692.864990 249.312592,696.864014 246.771515,701.255554 
	C250.556824,702.082703 252.850677,702.583984 255.524811,703.413635 
	C255.889297,704.074463 255.900803,704.406006 255.939575,704.736511 
	C252.774353,705.301758 247.935150,704.191833 249.221893,709.877991 
	C249.818497,712.514343 252.058624,714.792542 253.611664,717.195618 
	C256.195282,721.193237 259.701996,723.280945 264.639526,722.594238 
	C265.652283,722.453369 266.747742,722.907410 268.682648,723.236572 
	C263.442169,725.933533 258.883667,725.604553 254.645386,723.822205 
	C249.785522,721.778442 246.066223,718.431885 244.908340,712.747925 
	C244.477951,710.635193 242.816116,708.773254 241.318008,706.883911 
z"/>
<path fill="#DBD5B1" opacity="1.000000" stroke="none" 
	d="
M413.995056,683.014832 
	C413.290619,682.674866 412.586212,682.334961 411.506470,681.611084 
	C410.420288,680.890808 409.709381,680.554321 408.998474,680.217834 
	C406.306213,680.126038 403.613922,680.034241 400.072388,679.964050 
	C398.422485,679.968201 397.621887,679.950684 396.821289,679.933105 
	C401.979370,673.935547 410.894135,672.956787 416.476471,678.479309 
	C422.268127,684.208923 426.928894,691.159851 424.740662,699.761292 
	C422.897186,707.007629 421.298126,714.763123 414.671448,719.866821 
	C414.762970,718.739868 414.850708,717.659790 415.236755,716.165039 
	C415.637115,715.166626 415.739136,714.582886 415.841187,713.999207 
	C417.860443,707.606689 419.879700,701.214111 421.823547,694.092285 
	C421.178711,692.871765 420.609253,692.380554 420.039825,691.889404 
	C418.906342,689.693909 417.772827,687.498413 416.282990,684.812012 
	C415.282806,683.885620 414.638916,683.450256 413.995056,683.014832 
z"/>
<path fill="#DBD5B1" opacity="1.000000" stroke="none" 
	d="
M95.994644,711.376709 
	C95.997070,706.263916 95.990639,701.537354 95.962265,696.335815 
	C96.264992,692.621094 95.474571,688.749756 100.837502,687.724182 
	C99.558632,692.840881 97.249405,697.579163 97.501968,702.176575 
	C97.839111,708.313965 100.737289,714.112000 105.813271,718.160522 
	C109.445396,721.057434 113.401657,722.935791 117.880280,719.319153 
	C118.518600,718.803650 119.931839,719.247803 121.509010,719.247803 
	C119.271690,723.786255 115.898666,725.085388 111.765190,724.795593 
	C105.729774,724.372314 96.579361,719.326599 95.994644,711.376709 
z"/>
<path fill="#E0D8B5" opacity="1.000000" stroke="none" 
	d="
M341.847504,721.056641 
	C336.745941,717.739197 334.526459,712.686584 334.060455,706.948303 
	C333.665100,702.079346 333.978912,697.152649 333.978912,691.053223 
	C331.558533,693.612488 329.936310,695.327820 328.314056,697.043152 
	C327.852081,696.602234 327.390137,696.161316 326.928162,695.720337 
	C330.544434,692.009460 334.160736,688.298584 338.840240,683.496704 
	C338.840240,691.108643 339.012695,697.109192 338.794067,703.095459 
	C338.552429,709.711853 340.268188,715.472412 344.708710,720.569702 
	C343.523315,720.993530 342.685425,721.025085 341.847504,721.056641 
z"/>
<path fill="#E1D9B6" opacity="1.000000" stroke="none" 
	d="
M342.040863,721.363342 
	C342.685425,721.025085 343.523315,720.993530 344.779907,720.939819 
	C347.176697,719.173889 349.712646,717.774780 351.039215,715.628296 
	C357.811493,704.670227 356.240570,699.831360 355.210236,691.179016 
	C359.731171,693.472534 362.314056,700.678711 360.373840,705.624817 
	C359.839691,706.986450 359.341461,708.371948 358.681366,709.672607 
	C355.222717,716.487793 355.206482,716.479553 361.234650,720.228577 
	C361.160126,720.858398 361.110321,721.123169 360.994232,721.786560 
	C356.673767,721.013611 352.680084,718.607971 348.884918,724.060852 
	C347.181122,726.508789 343.857178,724.342834 342.040863,721.363342 
z"/>
<path fill="#DBD5B1" opacity="1.000000" stroke="none" 
	d="
M111.491592,694.093384 
	C111.350151,692.698181 111.262039,691.214905 111.645683,689.865723 
	C112.046654,688.455750 112.901489,687.174744 113.557930,685.837402 
	C111.612701,684.924072 109.722481,683.846436 107.698357,683.168762 
	C106.727394,682.843689 105.503220,683.274963 104.378006,683.029785 
	C111.265564,678.746216 116.303711,681.523071 120.649025,687.318115 
	C117.683540,689.566711 114.717911,691.815491 111.491592,694.093384 
z"/>
<path fill="#D4D0AC" opacity="1.000000" stroke="none" 
	d="
M303.419739,724.782043 
	C302.981384,724.019714 302.989136,723.389648 302.993134,722.444458 
	C306.908356,721.926941 311.048798,722.435913 314.678711,721.305420 
	C317.789856,720.336487 320.316528,717.490845 323.455811,716.011902 
	C320.602722,721.693115 316.579926,725.556396 309.795746,725.147522 
	C307.821594,725.028564 305.842590,724.989807 303.419739,724.782043 
z"/>
<path fill="#D4D0AC" opacity="1.000000" stroke="none" 
	d="
M254.303848,688.806396 
	C253.406067,688.565918 252.871567,688.265930 252.023376,687.918701 
	C257.103363,683.274658 263.139130,681.023621 270.607819,683.353760 
	C270.945587,684.379944 270.950012,684.841919 270.954468,685.303955 
	C265.052338,684.213928 259.677979,685.620422 254.303848,688.806396 
z"/>
<path fill="#D4D0AC" opacity="1.000000" stroke="none" 
	d="
M396.458435,679.920654 
	C397.621887,679.950684 398.422485,679.968201 399.623322,679.997192 
	C399.109314,680.806824 398.195068,681.604919 396.807983,682.748535 
	C395.885895,683.728027 395.436676,684.361938 394.987427,684.995850 
	C394.710175,685.167603 394.432922,685.339355 393.743835,685.802002 
	C392.852631,686.715942 392.373291,687.338928 391.893951,687.961914 
	C390.968536,689.067383 390.043121,690.172913 388.753174,691.706238 
	C387.977570,692.187439 387.566467,692.240845 387.155396,692.294250 
	C386.943939,691.975159 386.732513,691.656067 386.278259,691.180603 
	C386.817902,684.992126 392.000183,682.941956 396.458435,679.920654 
z"/>
<path fill="#D4D0AC" opacity="1.000000" stroke="none" 
	d="
M500.239624,728.021484 
	C500.125336,727.473999 500.237000,727.296265 500.562225,727.091064 
	C505.663208,728.134644 510.620239,729.249268 515.499146,730.346313 
	C514.301208,734.099792 506.651459,733.651550 500.239624,728.021484 
z"/>
<path fill="#BDC19A" opacity="1.000000" stroke="none" 
	d="
M256.339905,704.791687 
	C255.900803,704.406006 255.889297,704.074463 255.927673,703.494019 
	C259.065826,699.279846 264.124725,698.847168 268.635498,702.044250 
	C264.744965,702.960876 260.742584,703.903870 256.339905,704.791687 
z"/>
<path fill="#DBD5B1" opacity="1.000000" stroke="none" 
	d="
M65.374680,679.847168 
	C66.014969,679.921082 66.289833,679.973694 66.902817,680.456726 
	C64.186821,683.650208 61.132710,686.413330 58.078606,689.176514 
	C57.592751,688.811035 57.106884,688.445557 56.307404,688.038940 
	C58.998936,685.273804 62.004089,682.549805 65.374680,679.847168 
z"/>
<path fill="#BDC19A" opacity="1.000000" stroke="none" 
	d="
M140.963715,682.066772 
	C139.241257,682.066772 137.518784,682.066772 135.491318,682.066772 
	C133.423187,677.184326 138.661819,676.698975 139.581726,673.695435 
	C139.973816,673.865540 140.365891,674.035645 140.757980,674.205811 
	C140.598511,676.056396 140.439041,677.906982 140.680206,680.211426 
	C141.041794,681.132507 141.002762,681.599609 140.963715,682.066772 
z"/>
<path fill="#BDC19A" opacity="1.000000" stroke="none" 
	d="
M271.160278,685.579712 
	C270.950012,684.841919 270.945587,684.379944 270.951904,683.572021 
	C271.961304,681.867676 272.959991,680.509094 273.760590,679.420044 
	C274.947418,681.903625 276.434570,685.015747 277.921753,688.127808 
	C277.654816,688.501587 277.387878,688.875305 277.120941,689.249084 
	C275.202667,688.117859 273.284393,686.986694 271.160278,685.579712 
z"/>
<path fill="#E1D9B6" opacity="1.000000" stroke="none" 
	d="
M141.033356,682.421875 
	C141.002762,681.599609 141.041794,681.132507 141.032211,680.316162 
	C142.404373,679.563904 143.825165,679.160889 145.245941,678.757812 
	C145.449860,680.592957 145.653778,682.428162 145.857697,684.263306 
	C144.272797,683.767822 142.687897,683.272339 141.033356,682.421875 
z"/>
<path fill="#BDC19A" opacity="1.000000" stroke="none" 
	d="
M400.750488,694.590088 
	C401.792542,693.595032 402.756775,692.970520 403.720947,692.346069 
	C404.199188,693.134583 405.226715,694.086243 405.050262,694.680420 
	C404.566895,696.308228 403.577118,697.785583 402.787842,699.322510 
	C402.221313,699.184448 401.654785,699.046387 401.088257,698.908325 
	C400.949707,697.592468 400.811157,696.276550 400.750488,694.590088 
z"/>
<path fill="#D4D0AC" opacity="1.000000" stroke="none" 
	d="
M167.670105,696.112427 
	C168.264542,696.224670 168.530701,696.449829 168.914261,697.266541 
	C167.064484,700.318787 165.097305,702.779419 163.130127,705.240112 
	C163.085556,704.378113 163.040970,703.516052 162.963730,702.223633 
	C164.401321,699.937256 165.871567,698.081238 167.670105,696.112427 
z"/>
<path fill="#BDC19A" opacity="1.000000" stroke="none" 
	d="
M400.042511,700.014465 
	C401.036774,700.698547 402.975403,701.729004 402.872101,702.010620 
	C402.201447,703.839355 401.086731,705.505249 400.117462,707.224426 
	C399.617188,707.075562 399.116913,706.926636 398.616638,706.777771 
	C398.395050,705.468506 398.173462,704.159180 398.307739,702.381958 
	C399.123199,701.280823 399.582855,700.647644 400.042511,700.014465 
z"/>
<path fill="#BDC19A" opacity="1.000000" stroke="none" 
	d="
M203.868271,726.630981 
	C200.779526,726.536621 197.496292,726.108948 194.137192,725.285889 
	C197.265472,725.359497 200.469635,725.828552 203.868271,726.630981 
z"/>
<path fill="#D4D0AC" opacity="1.000000" stroke="none" 
	d="
M78.644119,722.157349 
	C77.973213,721.950867 77.663483,721.780701 77.484299,721.247192 
	C79.167778,720.014465 80.720718,719.145081 82.273651,718.275757 
	C82.416245,718.417542 82.558838,718.559387 82.915527,718.913696 
	C81.754845,720.148682 80.380066,721.171143 78.644119,722.157349 
z"/>
<path fill="#E0D8B5" opacity="1.000000" stroke="none" 
	d="
M369.802826,675.074829 
	C368.761566,674.432678 367.720306,673.790466 366.679047,673.148254 
	C366.987427,672.605957 367.295776,672.063660 367.604156,671.521301 
	C369.120636,672.317444 370.637146,673.113586 372.320496,674.251465 
	C372.487305,674.593140 372.242188,674.797180 371.753784,674.902344 
	C370.777893,675.029968 370.290344,675.052368 369.802826,675.074829 
z"/>
<path fill="#BDC19A" opacity="1.000000" stroke="none" 
	d="
M205.271927,729.287109 
	C205.000275,728.645325 205.010193,728.210144 204.992493,727.449585 
	C206.608444,727.538147 208.252014,727.952148 209.895584,728.366150 
	C209.804642,728.852844 209.713684,729.339600 209.622726,729.826355 
	C208.266327,729.715515 206.909927,729.604675 205.271927,729.287109 
z"/>
<path fill="#D4D0AC" opacity="1.000000" stroke="none" 
	d="
M385.784027,691.273560 
	C385.637573,691.987671 385.248077,692.925537 384.541351,693.939270 
	C384.663086,693.175842 385.102020,692.336548 385.784027,691.273560 
z"/>
<path fill="#235A20" opacity="1.000000" stroke="none" 
	d="
M415.572906,714.044678 
	C415.739136,714.582886 415.637115,715.166626 415.255554,715.871033 
	C415.085602,715.357849 415.195129,714.723999 415.572906,714.044678 
z"/>
<path fill="#235A20" opacity="1.000000" stroke="none" 
	d="
M409.078796,680.527100 
	C409.709381,680.554321 410.420288,680.890808 411.197479,681.565308 
	C410.562225,681.547729 409.860687,681.192017 409.078796,680.527100 
z"/>
<path fill="#E1D9B6" opacity="1.000000" stroke="none" 
	d="
M366.635986,721.941528 
	C366.696716,722.427795 366.428314,722.952759 366.159912,723.477661 
	C365.814392,723.228333 365.468811,722.979004 365.062805,722.453857 
	C365.437134,722.112183 365.871979,722.046204 366.635986,721.941528 
z"/>
<path fill="#E1D9B6" opacity="1.000000" stroke="none" 
	d="
M369.859283,675.430969 
	C370.290344,675.052368 370.777893,675.029968 371.631409,675.004639 
	C371.978607,675.533264 371.959808,676.064880 371.900208,676.993713 
	C371.211487,676.856384 370.563599,676.321777 369.859283,675.430969 
z"/>
<path fill="#235A20" opacity="1.000000" stroke="none" 
	d="
M395.303040,684.944519 
	C395.436676,684.361938 395.885895,683.728027 396.665497,683.040955 
	C396.536774,683.622925 396.077698,684.258057 395.303040,684.944519 
z"/>
<path fill="#235A20" opacity="1.000000" stroke="none" 
	d="
M399.720245,700.064209 
	C399.582855,700.647644 399.123199,701.280823 398.343597,701.990662 
	C398.481750,701.416199 398.939850,700.765137 399.720245,700.064209 
z"/>
<path fill="#235A20" opacity="1.000000" stroke="none" 
	d="
M414.050964,683.328979 
	C414.638916,683.450256 415.282806,683.885620 415.978699,684.655273 
	C415.389404,684.540649 414.748138,684.091858 414.050964,683.328979 
z"/>
<path fill="#235A20" opacity="1.000000" stroke="none" 
	d="
M392.218567,687.923523 
	C392.373291,687.338928 392.852631,686.715942 393.663879,686.040283 
	C393.511566,686.620056 393.027374,687.252563 392.218567,687.923523 
z"/>
<path fill="#235A20" opacity="1.000000" stroke="none" 
	d="
M420.062683,692.191406 
	C420.609253,692.380554 421.178711,692.871765 421.725952,693.683228 
	C421.164368,693.500183 420.624969,692.996765 420.062683,692.191406 
z"/>
<path fill="#235A20" opacity="1.000000" stroke="none" 
	d="
M387.179596,692.578613 
	C387.566467,692.240845 387.977570,692.187439 388.687927,692.048767 
	C388.608368,692.597046 388.229523,693.230591 387.560852,693.933167 
	C387.248627,693.622437 387.226227,693.242737 387.179596,692.578613 
z"/>
<path fill="#275D23" opacity="1.000000" stroke="none" 
	d="
M82.478668,717.987000 
	C80.720718,719.145081 79.167778,720.014465 77.301727,721.052673 
	C72.861000,720.684082 68.278229,721.106689 64.699974,719.410339 
	C57.120205,715.817017 53.562195,707.180603 55.298462,698.853149 
	C55.928612,695.830933 57.128883,692.927612 58.073807,689.573242 
	C61.132710,686.413330 64.186821,683.650208 67.315735,680.532349 
	C71.952568,680.739441 76.901810,680.375061 80.985031,682.082092 
	C86.969650,684.584106 89.544800,690.155396 89.479256,696.720154 
	C89.411072,703.549988 88.172012,710.000427 83.512291,715.385864 
	C83.012650,715.963318 82.949379,716.918335 82.478668,717.987000 
M67.033348,702.227234 
	C67.291489,703.713501 67.476265,705.221863 67.908806,706.655579 
	C67.958015,706.818665 69.949608,706.805176 70.101944,706.459656 
	C70.938110,704.563416 71.481720,702.538147 72.125778,700.557190 
	C71.700279,700.262268 71.274780,699.967407 70.849281,699.672485 
	C69.700302,700.314453 68.551331,700.956482 67.033348,702.227234 
z"/>
<path fill="#2F622A" opacity="1.000000" stroke="none" 
	d="
M163.116913,705.617554 
	C165.097305,702.779419 167.064484,700.318787 169.037796,697.498779 
	C173.255600,695.203430 174.217865,697.870117 173.531799,700.947937 
	C172.356293,706.221436 170.835403,711.485962 168.743500,716.452637 
	C167.939880,718.360596 165.176071,719.442871 163.305450,720.901428 
	C162.317642,718.900818 160.450531,716.857178 160.545807,714.909546 
	C160.692871,711.903503 162.183151,708.963135 163.116913,705.617554 
z"/>
<path fill="#21591F" opacity="1.000000" stroke="none" 
	d="
M168.561478,688.478027 
	C168.751389,687.237427 169.194107,686.311401 169.636841,685.385376 
	C170.023392,685.455811 170.409943,685.526306 170.796509,685.596802 
	C170.582443,686.856140 170.368378,688.115540 169.746307,689.390686 
	C169.163620,689.201843 168.988953,688.997253 168.561478,688.478027 
z"/>
<path fill="#BDC19A" opacity="1.000000" stroke="none" 
	d="
M67.217850,701.912842 
	C68.551331,700.956482 69.700302,700.314453 70.849281,699.672485 
	C71.274780,699.967407 71.700279,700.262268 72.125778,700.557190 
	C71.481720,702.538147 70.938110,704.563416 70.101944,706.459656 
	C69.949608,706.805176 67.958015,706.818665 67.908806,706.655579 
	C67.476265,705.221863 67.291489,703.713501 67.217850,701.912842 
z"/>
</svg>