<svg version="1.1" id="Layer_1" xmlns="http://www.w3.org/2000/svg" xmlns:xlink="http://www.w3.org/1999/xlink" x="0px" y="0px"
	 width="100%" viewBox="0 0 947 956" enable-background="new 0 0 947 956" xml:space="preserve">
<path fill="#023430" opacity="1.000000" stroke="none"
	d="
M641.000000,957.000000 
	C427.690033,957.000000 214.380081,957.000000 1.070111,957.000000 
	C1.046736,956.856750 1.002875,956.713440 1.002874,956.570190 
	C1.000002,638.105103 1.000000,319.639954 1.000000,1.087424 
	C316.573792,1.087424 632.147583,1.087424 947.860718,1.087424 
	C947.860718,319.666626 947.860718,638.333313 947.860718,957.000000 
	C848.560852,957.000000 749.238403,957.000000 649.324768,956.645325 
	C653.144531,947.815979 657.671326,939.399109 661.936523,930.851685 
	C667.025208,920.653870 672.074036,910.427856 676.791016,900.055298 
	C680.295410,892.349182 683.223633,884.381958 686.445190,876.546082 
	C689.553101,868.987000 692.851074,861.502869 695.810669,853.886658 
	C700.986267,840.567871 705.947937,827.166077 711.033997,813.812317 
	C716.089661,800.538452 720.986145,787.198975 726.322693,774.038330 
	C732.089844,759.815735 738.285706,745.766968 744.645996,730.816284 
	C773.111328,730.816284 802.503296,730.816284 831.775757,730.816284 
	C831.775757,513.297974 831.775757,296.365448 831.775757,79.240318 
	C597.499634,79.240318 363.450287,79.240318 129.206253,79.240318 
	C129.206253,296.531769 129.206253,513.580322 129.206253,731.143921 
	C326.353424,731.143921 523.194641,731.143921 720.644165,731.143921 
	C717.626038,740.101501 714.881653,748.441589 712.004395,756.735657 
	C708.562744,766.656616 705.001038,776.535950 701.503906,786.437805 
	C699.254272,792.807373 697.162109,799.236389 694.755066,805.545532 
	C691.988770,812.796204 688.847900,819.903442 686.057007,827.145142 
	C681.137085,839.911011 676.535706,852.802063 671.462097,865.505371 
	C667.891296,874.445984 663.664368,883.122253 659.916321,891.995056 
	C657.905884,896.754395 656.665405,901.861938 654.424683,906.496826 
	C646.691040,922.493530 643.371582,939.608215 641.000000,957.000000 
z"/>
<path fill="#F9E9C9" opacity="1.000000" stroke="none" 
	d="
M641.444153,957.000000 
	C643.371582,939.608215 646.691040,922.493530 654.424683,906.496826 
	C656.665405,901.861938 657.905884,896.754395 659.916321,891.995056 
	C663.664368,883.122253 667.891296,874.445984 671.462097,865.505371 
	C676.535706,852.802063 681.137085,839.911011 686.057007,827.145142 
	C688.847900,819.903442 691.988770,812.796204 694.755066,805.545532 
	C697.162109,799.236389 699.254272,792.807373 701.503906,786.437805 
	C705.001038,776.535950 708.562744,766.656616 712.004395,756.735657 
	C714.881653,748.441589 717.626038,740.101501 720.644165,731.143921 
	C523.194641,731.143921 326.353424,731.143921 129.206253,731.143921 
	C129.206253,513.580322 129.206253,296.531769 129.206253,79.240318 
	C363.450287,79.240318 597.499634,79.240318 831.775757,79.240318 
	C831.775757,296.365448 831.775757,513.297974 831.775757,730.816284 
	C802.503296,730.816284 773.111328,730.816284 744.645996,730.816284 
	C738.285706,745.766968 732.089844,759.815735 726.322693,774.038330 
	C720.986145,787.198975 716.089661,800.538452 711.033997,813.812317 
	C705.947937,827.166077 700.986267,840.567871 695.810669,853.886658 
	C692.851074,861.502869 689.553101,868.987000 686.445190,876.546082 
	C683.223633,884.381958 680.295410,892.349182 676.791016,900.055298 
	C672.074036,910.427856 667.025208,920.653870 661.936523,930.851685 
	C657.671326,939.399109 653.144531,947.815979 648.866821,956.645325 
	C646.629456,957.000000 644.258850,957.000000 641.444153,957.000000 
M765.569031,546.811035 
	C766.965271,506.917938 769.011230,467.011536 764.147278,427.200500 
	C762.710022,415.436401 761.130676,403.678589 759.172485,391.992279 
	C757.188416,380.151428 755.079041,368.317627 750.155334,357.185089 
	C745.456238,346.560364 741.429504,335.630066 736.511597,325.112610 
	C731.641724,314.697815 725.227600,304.953125 720.949890,294.327118 
	C715.994507,282.017395 707.809265,272.608582 698.411072,263.820587 
	C695.420105,261.023804 692.382202,258.151093 690.020447,254.845352 
	C687.922791,251.909225 685.683350,251.115265 682.268127,251.523590 
	C670.672363,252.909988 660.738770,258.839691 650.241211,263.138763 
	C640.848694,266.985291 631.797058,271.666321 622.606384,276.003296 
	C612.995850,280.538391 603.159363,284.664520 593.853333,289.758179 
	C580.583557,297.021423 567.608643,304.843628 554.731079,312.789062 
	C551.461121,314.806671 548.370789,317.781799 546.359680,321.035065 
	C542.108765,327.911560 538.133362,335.051819 534.957336,342.474335 
	C531.452942,350.664185 527.845093,359.093262 526.316895,367.776215 
	C524.228943,379.639771 523.950256,391.833801 523.120239,403.901581 
	C522.720642,409.712982 522.351196,415.599213 522.824402,421.381470 
	C523.613281,431.020050 524.673828,440.676819 526.375916,450.190674 
	C528.930481,464.469849 532.166382,478.626434 535.054932,492.846863 
	C536.269714,498.827118 536.900391,504.962311 538.572083,510.805206 
	C541.280090,520.269836 544.284302,529.684021 547.827698,538.863159 
	C550.130188,544.827820 553.166260,550.630920 556.684875,555.971985 
	C560.566650,561.864197 565.303101,567.205261 569.802673,572.674988 
	C573.888550,577.641907 573.147461,586.421936 567.815247,588.780396 
	C562.707642,591.039612 558.095642,594.486938 551.910217,594.494812 
	C547.838257,594.500000 544.452087,597.278442 542.740173,601.432251 
	C541.934814,603.386353 541.125854,605.403076 539.919006,607.108765 
	C538.807922,608.679077 537.161499,609.870605 535.750916,611.229004 
	C534.166992,609.566345 532.136841,608.144592 531.084412,606.195068 
	C528.140869,600.742676 525.568665,595.087585 522.911743,589.483215 
	C519.927734,583.188843 516.338135,577.080627 514.205933,570.504333 
	C509.783508,556.864502 505.662842,543.084900 502.338379,529.143372 
	C499.367889,516.686218 496.989899,504.008514 495.523193,491.292847 
	C493.812866,476.465271 493.111389,461.502686 492.442383,446.577576 
	C491.099518,416.617218 492.501373,386.707001 494.856171,356.836578 
	C495.180969,352.716339 495.930908,348.629578 496.505280,344.369476 
	C479.638428,343.918091 463.041534,342.692444 447.252258,336.777985 
	C440.112854,334.103638 433.062897,331.074036 426.272430,327.616272 
	C418.871765,323.847839 412.566101,318.393341 405.898529,313.458618 
	C394.990479,305.385468 386.624329,295.062469 377.778381,285.228516 
	C372.039948,278.849152 368.344971,270.628510 363.756683,263.219086 
	C361.540588,259.640381 359.341156,256.050446 357.195007,252.429550 
	C352.465912,244.450851 347.737030,236.471527 343.082184,228.449493 
	C339.784088,222.765610 336.720276,216.943634 333.343719,211.308044 
	C330.121460,205.930069 326.811279,200.585327 323.197693,195.467484 
	C320.409088,191.518021 317.399231,187.617004 313.906006,184.308655 
	C311.346283,181.884384 307.653107,178.672272 304.802246,178.975952 
	C299.729706,179.516266 294.301758,181.593384 290.114471,184.565994 
	C281.150848,190.929367 272.957275,198.367065 264.311249,205.191116 
	C255.311462,212.294434 247.560516,220.506836 240.698975,229.692688 
	C235.669632,236.425659 229.660889,242.443176 224.827011,249.300079 
	C221.847275,253.526871 219.050797,258.552765 218.310226,263.537567 
	C217.073151,271.864288 222.384888,278.171753 228.542068,282.833282 
	C238.871796,290.653748 249.598450,297.988342 260.479828,305.030212 
	C269.933472,311.148071 279.857330,316.536224 289.528290,322.322296 
	C301.612457,329.552155 313.805328,336.617188 325.663086,344.203827 
	C336.653412,351.235504 347.616028,358.404877 357.928497,366.371033 
	C365.870453,372.506042 373.006775,379.751373 380.093140,386.907166 
	C386.916412,393.797241 394.080872,400.610809 399.532501,408.533417 
	C406.793060,419.084839 413.227753,430.194916 418.736633,441.963684 
	C423.864105,452.917664 427.334412,464.385071 428.266632,475.780792 
	C429.579163,491.825378 427.615845,508.166321 426.614899,524.353394 
	C426.337463,528.840027 425.349060,533.686218 423.239044,537.583679 
	C415.509003,551.861755 407.170013,565.810120 399.057556,579.881104 
	C397.244598,583.025513 395.982941,586.734924 393.489014,589.190430 
	C387.454529,595.132080 381.079590,600.789856 374.411102,606.011963 
	C363.139954,614.838318 351.297668,622.821838 337.619843,627.629211 
	C331.725372,629.700989 326.241150,627.680603 322.994598,622.131165 
	C322.698578,621.625122 322.134338,621.282166 321.797791,620.792603 
	C316.903961,613.675232 311.872284,606.645752 307.200562,599.384949 
	C303.929047,594.300354 301.137848,588.905334 298.162994,583.631653 
	C294.440918,577.033325 290.749725,570.417603 287.046661,563.808594 
	C283.447876,557.385620 280.088715,550.813171 276.192902,544.575745 
	C271.360352,536.838379 265.943207,529.468018 261.034851,521.775635 
	C254.678345,511.813721 247.187485,502.812317 239.061752,494.268585 
	C232.856110,487.743683 227.100586,480.785217 220.799301,474.358368 
	C215.826080,469.286011 210.989349,463.509888 204.916245,460.210480 
	C193.981537,454.269958 182.167923,449.946320 170.716873,444.957764 
	C168.054611,443.798004 165.373978,442.680420 162.305298,441.374725 
	C162.305298,527.575073 162.305298,612.646729 162.305298,697.998840 
	C164.245102,697.998840 165.889435,697.998779 167.533768,697.998779 
	C353.352173,697.998779 539.170532,697.998901 724.988953,697.997559 
	C726.321838,697.997559 727.754761,698.279053 728.957886,697.878845 
	C730.032410,697.521484 731.420105,696.562317 731.695007,695.592346 
	C733.632324,688.757446 735.345764,681.858032 737.076538,674.965637 
	C739.209656,666.471375 741.169006,657.931519 743.424622,649.470398 
	C746.166199,639.186218 749.250793,628.993164 751.970581,618.703613 
	C753.728455,612.053345 755.213318,605.324402 756.612000,598.587524 
	C758.246033,590.716797 759.776367,582.819946 761.126099,574.895996 
	C762.668030,565.843506 763.961487,556.748779 765.569031,546.811035 
M217.214050,319.183838 
	C215.178452,317.072449 213.271927,314.815521 211.084137,312.875763 
	C203.055099,305.757019 197.426804,296.657562 194.392929,286.840027 
	C190.197495,273.263763 194.056061,260.018616 201.754150,248.341980 
	C206.167526,241.647690 211.808640,235.763168 216.892944,229.510757 
	C223.132950,221.837158 228.730911,213.512314 235.735596,206.615906 
	C251.567291,191.028946 267.889862,175.920258 284.437469,161.090958 
	C290.901825,155.297867 298.354431,150.546860 305.635223,145.743042 
	C312.524750,141.197357 319.655365,136.977066 326.907928,133.032959 
	C334.006348,129.172714 338.377655,129.662933 341.906769,134.442978 
	C343.948517,137.208420 345.562866,140.357300 346.968567,143.512268 
	C352.118622,155.070862 357.272186,166.633438 362.103699,178.327042 
	C368.580048,194.001694 374.719635,209.815155 381.078369,225.538849 
	C385.114624,235.519516 388.833649,245.616364 395.844635,254.140793 
	C404.199005,264.298553 411.838593,275.053589 420.370850,285.052307 
	C426.057587,291.716400 432.576508,297.716125 439.071777,303.630096 
	C444.298706,308.389221 449.658539,313.224213 455.674591,316.833435 
	C461.877777,320.554962 467.847382,325.025146 475.651947,325.803436 
	C484.219849,326.657806 492.690826,328.484528 500.646057,329.795624 
	C501.893433,326.825958 502.594666,325.230682 503.237854,323.612305 
	C505.866486,316.998352 508.326752,310.312775 511.131073,303.774506 
	C515.056458,294.622589 518.899902,285.407043 523.450195,276.564392 
	C525.564087,272.456421 525.520020,269.006378 523.826416,265.114227 
	C521.017334,258.658508 515.542114,256.532654 509.212524,254.292267 
	C500.409515,251.176407 492.239807,251.426392 483.735779,254.300247 
	C477.163818,256.521210 470.529785,258.373322 462.438019,256.406464 
	C463.247864,253.740616 463.997864,251.292419 464.735168,248.840408 
	C466.270386,243.734818 471.168793,242.684784 475.072510,240.865570 
	C483.134460,237.108597 491.405792,233.741196 499.777435,230.732391 
	C504.316010,229.101196 509.202148,228.314529 513.995178,227.541565 
	C521.891174,226.268188 529.875061,224.215805 537.756714,224.474777 
	C550.812378,224.903732 555.419312,232.357986 551.511963,244.010880 
	C549.807373,249.094452 548.567505,254.337097 547.198608,259.529114 
	C545.626526,265.491547 544.392395,271.554901 542.561035,277.434082 
	C540.356750,284.510590 537.590454,291.410583 535.276001,298.455505 
	C534.788391,299.939880 535.205078,301.721375 535.205078,304.346588 
	C539.475586,301.076935 542.487915,298.248779 545.960876,296.202576 
	C560.507935,287.631683 575.196899,279.301758 589.826477,270.870667 
	C601.885803,263.920868 613.840454,256.782715 626.016418,250.044083 
	C636.749573,244.103958 647.935852,238.964096 658.533875,232.803238 
	C669.191833,226.607574 680.309265,221.787125 691.896118,217.621155 
	C698.139404,215.376434 705.066467,213.253754 709.204468,207.018845 
	C711.927429,202.915863 714.894165,198.974640 717.751770,194.961014 
	C721.867004,198.877838 723.879883,200.505859 725.162842,202.584442 
	C728.710144,208.331528 731.893311,214.301819 735.333313,220.117050 
	C738.454468,225.393295 741.640320,230.635422 744.947449,235.796570 
	C750.372192,244.262680 756.347534,252.408051 761.292053,261.140839 
	C766.184998,269.782501 770.347656,278.870178 774.356018,287.971283 
	C778.512817,297.409302 782.385437,306.996796 785.837036,316.712646 
	C788.161987,323.257019 789.634277,330.114258 791.317932,336.873840 
	C793.352417,345.041565 795.371643,353.220154 797.068115,361.461853 
	C797.874268,365.378448 797.916870,369.452179 798.305298,373.454742 
	C798.645325,373.441620 798.985291,373.428467 799.325317,373.415314 
	C799.325317,286.365417 799.325317,199.315536 799.325317,112.338364 
	C586.986694,112.338364 374.600647,112.338364 162.198547,112.338364 
	C162.198547,216.787994 162.198547,320.899933 162.198547,425.274261 
	C167.990707,426.323883 173.745178,426.982391 179.282959,428.455475 
	C188.882080,431.008972 198.366867,434.002563 207.861496,436.934998 
	C214.531647,438.995026 221.720932,440.247894 227.644638,443.657288 
	C237.916122,449.569122 247.934448,456.214050 257.033478,463.784119 
	C265.486542,470.816772 272.847595,479.237030 280.230286,487.458679 
	C286.714386,494.679535 292.663818,502.392151 298.656281,510.038910 
	C302.830444,515.365356 306.851349,520.831055 310.627869,526.445068 
	C315.352478,533.468506 319.446533,540.929626 324.370148,547.802490 
	C332.075836,558.558960 340.170319,569.041992 348.323853,579.465881 
	C349.338135,580.762573 351.720306,581.618774 353.460022,581.604858 
	C359.591003,581.555847 364.887543,578.537903 368.729095,574.289307 
	C374.980408,567.375610 381.023621,560.069580 385.862152,552.140503 
	C390.651825,544.291443 394.797974,535.763184 397.518433,527.002441 
	C402.078400,512.318176 400.292358,497.193176 397.722412,482.283142 
	C397.002167,478.104645 396.218140,473.755920 394.426086,469.977234 
	C388.966675,458.465302 384.331818,446.435272 375.851746,436.605835 
	C369.443146,429.177582 363.516022,421.184479 356.277039,414.660583 
	C347.546631,406.792664 337.799316,400.012909 328.227722,393.129852 
	C318.537720,386.161713 308.695465,379.372589 298.609009,372.996826 
	C286.658997,365.443146 274.393585,358.386505 262.224182,351.183197 
	C259.729187,349.706329 256.866547,348.805847 254.495453,347.172211 
	C245.818741,341.194244 237.219910,335.098358 228.712402,328.881775 
	C224.859116,326.066132 221.288910,322.863159 217.214050,319.183838 
M766.734497,667.147949 
	C763.406738,677.271545 760.078979,687.395203 756.665588,697.779297 
	C771.374878,697.779297 785.468384,697.779297 799.561462,697.779297 
	C799.561462,646.123413 799.561462,594.692993 799.561462,543.262634 
	C798.526978,543.573242 798.089050,544.065491 798.064697,544.577393 
	C797.502808,556.417114 794.448730,567.707520 791.200684,579.047424 
	C787.890686,590.603699 785.728882,602.484070 782.818726,614.161316 
	C780.971497,621.573669 778.799927,628.912476 776.551086,636.215698 
	C773.449524,646.288635 770.137817,656.296875 766.734497,667.147949 
z"/>
<path fill="#023430" opacity="1.000000" stroke="none"
	d="
M765.465942,547.241699 
	C763.961487,556.748779 762.668030,565.843506 761.126099,574.895996 
	C759.776367,582.819946 758.246033,590.716797 756.612000,598.587524 
	C755.213318,605.324402 753.728455,612.053345 751.970581,618.703613 
	C749.250793,628.993164 746.166199,639.186218 743.424622,649.470398 
	C741.169006,657.931519 739.209656,666.471375 737.076538,674.965637 
	C735.345764,681.858032 733.632324,688.757446 731.695007,695.592346 
	C731.420105,696.562317 730.032410,697.521484 728.957886,697.878845 
	C727.754761,698.279053 726.321838,697.997559 724.988953,697.997559 
	C539.170532,697.998901 353.352173,697.998779 167.533768,697.998779 
	C165.889435,697.998779 164.245102,697.998840 162.305298,697.998840 
	C162.305298,612.646729 162.305298,527.575073 162.305298,441.374725 
	C165.373978,442.680420 168.054611,443.798004 170.716873,444.957764 
	C182.167923,449.946320 193.981537,454.269958 204.916245,460.210480 
	C210.989349,463.509888 215.826080,469.286011 220.799301,474.358368 
	C227.100586,480.785217 232.856110,487.743683 239.061752,494.268585 
	C247.187485,502.812317 254.678345,511.813721 261.034851,521.775635 
	C265.943207,529.468018 271.360352,536.838379 276.192902,544.575745 
	C280.088715,550.813171 283.447876,557.385620 287.046661,563.808594 
	C290.749725,570.417603 294.440918,577.033325 298.162994,583.631653 
	C301.137848,588.905334 303.929047,594.300354 307.200562,599.384949 
	C311.872284,606.645752 316.903961,613.675232 321.797791,620.792603 
	C322.134338,621.282166 322.698578,621.625122 322.994598,622.131165 
	C326.241150,627.680603 331.725372,629.700989 337.619843,627.629211 
	C351.297668,622.821838 363.139954,614.838318 374.411102,606.011963 
	C381.079590,600.789856 387.454529,595.132080 393.489014,589.190430 
	C395.982941,586.734924 397.244598,583.025513 399.057556,579.881104 
	C407.170013,565.810120 415.509003,551.861755 423.239044,537.583679 
	C425.349060,533.686218 426.337463,528.840027 426.614899,524.353394 
	C427.615845,508.166321 429.579163,491.825378 428.266632,475.780792 
	C427.334412,464.385071 423.864105,452.917664 418.736633,441.963684 
	C413.227753,430.194916 406.793060,419.084839 399.532501,408.533417 
	C394.080872,400.610809 386.916412,393.797241 380.093140,386.907166 
	C373.006775,379.751373 365.870453,372.506042 357.928497,366.371033 
	C347.616028,358.404877 336.653412,351.235504 325.663086,344.203827 
	C313.805328,336.617188 301.612457,329.552155 289.528290,322.322296 
	C279.857330,316.536224 269.933472,311.148071 260.479828,305.030212 
	C249.598450,297.988342 238.871796,290.653748 228.542068,282.833282 
	C222.384888,278.171753 217.073151,271.864288 218.310226,263.537567 
	C219.050797,258.552765 221.847275,253.526871 224.827011,249.300079 
	C229.660889,242.443176 235.669632,236.425659 240.698975,229.692688 
	C247.560516,220.506836 255.311462,212.294434 264.311249,205.191116 
	C272.957275,198.367065 281.150848,190.929367 290.114471,184.565994 
	C294.301758,181.593384 299.729706,179.516266 304.802246,178.975952 
	C307.653107,178.672272 311.346283,181.884384 313.906006,184.308655 
	C317.399231,187.617004 320.409088,191.518021 323.197693,195.467484 
	C326.811279,200.585327 330.121460,205.930069 333.343719,211.308044 
	C336.720276,216.943634 339.784088,222.765610 343.082184,228.449493 
	C347.737030,236.471527 352.465912,244.450851 357.195007,252.429550 
	C359.341156,256.050446 361.540588,259.640381 363.756683,263.219086 
	C368.344971,270.628510 372.039948,278.849152 377.778381,285.228516 
	C386.624329,295.062469 394.990479,305.385468 405.898529,313.458618 
	C412.566101,318.393341 418.871765,323.847839 426.272430,327.616272 
	C433.062897,331.074036 440.112854,334.103638 447.252258,336.777985 
	C463.041534,342.692444 479.638428,343.918091 496.505280,344.369476 
	C495.930908,348.629578 495.180969,352.716339 494.856171,356.836578 
	C492.501373,386.707001 491.099518,416.617218 492.442383,446.577576 
	C493.111389,461.502686 493.812866,476.465271 495.523193,491.292847 
	C496.989899,504.008514 499.367889,516.686218 502.338379,529.143372 
	C505.662842,543.084900 509.783508,556.864502 514.205933,570.504333 
	C516.338135,577.080627 519.927734,583.188843 522.911743,589.483215 
	C525.568665,595.087585 528.140869,600.742676 531.084412,606.195068 
	C532.136841,608.144592 534.166992,609.566345 535.750916,611.229004 
	C537.161499,609.870605 538.807922,608.679077 539.919006,607.108765 
	C541.125854,605.403076 541.934814,603.386353 542.740173,601.432251 
	C544.452087,597.278442 547.838257,594.500000 551.910217,594.494812 
	C558.095642,594.486938 562.707642,591.039612 567.815247,588.780396 
	C573.147461,586.421936 573.888550,577.641907 569.802673,572.674988 
	C565.303101,567.205261 560.566650,561.864197 556.684875,555.971985 
	C553.166260,550.630920 550.130188,544.827820 547.827698,538.863159 
	C544.284302,529.684021 541.280090,520.269836 538.572083,510.805206 
	C536.900391,504.962311 536.269714,498.827118 535.054932,492.846863 
	C532.166382,478.626434 528.930481,464.469849 526.375916,450.190674 
	C524.673828,440.676819 523.613281,431.020050 522.824402,421.381470 
	C522.351196,415.599213 522.720642,409.712982 523.120239,403.901581 
	C523.950256,391.833801 524.228943,379.639771 526.316895,367.776215 
	C527.845093,359.093262 531.452942,350.664185 534.957336,342.474335 
	C538.133362,335.051819 542.108765,327.911560 546.359680,321.035065 
	C548.370789,317.781799 551.461121,314.806671 554.731079,312.789062 
	C567.608643,304.843628 580.583557,297.021423 593.853333,289.758179 
	C603.159363,284.664520 612.995850,280.538391 622.606384,276.003296 
	C631.797058,271.666321 640.848694,266.985291 650.241211,263.138763 
	C660.738770,258.839691 670.672363,252.909988 682.268127,251.523590 
	C685.683350,251.115265 687.922791,251.909225 690.020447,254.845352 
	C692.382202,258.151093 695.420105,261.023804 698.411072,263.820587 
	C707.809265,272.608582 715.994507,282.017395 720.949890,294.327118 
	C725.227600,304.953125 731.641724,314.697815 736.511597,325.112610 
	C741.429504,335.630066 745.456238,346.560364 750.155334,357.185089 
	C755.079041,368.317627 757.188416,380.151428 759.172485,391.992279 
	C761.130676,403.678589 762.710022,415.436401 764.147278,427.200500 
	C769.011230,467.011536 766.965271,506.917938 765.465942,547.241699 
z"/>
<path fill="#023430" opacity="1.000000" stroke="none"
	d="
M217.402161,319.509888 
	C221.288910,322.863159 224.859116,326.066132 228.712402,328.881775 
	C237.219910,335.098358 245.818741,341.194244 254.495453,347.172211 
	C256.866547,348.805847 259.729187,349.706329 262.224182,351.183197 
	C274.393585,358.386505 286.658997,365.443146 298.609009,372.996826 
	C308.695465,379.372589 318.537720,386.161713 328.227722,393.129852 
	C337.799316,400.012909 347.546631,406.792664 356.277039,414.660583 
	C363.516022,421.184479 369.443146,429.177582 375.851746,436.605835 
	C384.331818,446.435272 388.966675,458.465302 394.426086,469.977234 
	C396.218140,473.755920 397.002167,478.104645 397.722412,482.283142 
	C400.292358,497.193176 402.078400,512.318176 397.518433,527.002441 
	C394.797974,535.763184 390.651825,544.291443 385.862152,552.140503 
	C381.023621,560.069580 374.980408,567.375610 368.729095,574.289307 
	C364.887543,578.537903 359.591003,581.555847 353.460022,581.604858 
	C351.720306,581.618774 349.338135,580.762573 348.323853,579.465881 
	C340.170319,569.041992 332.075836,558.558960 324.370148,547.802490 
	C319.446533,540.929626 315.352478,533.468506 310.627869,526.445068 
	C306.851349,520.831055 302.830444,515.365356 298.656281,510.038910 
	C292.663818,502.392151 286.714386,494.679535 280.230286,487.458679 
	C272.847595,479.237030 265.486542,470.816772 257.033478,463.784119 
	C247.934448,456.214050 237.916122,449.569122 227.644638,443.657288 
	C221.720932,440.247894 214.531647,438.995026 207.861496,436.934998 
	C198.366867,434.002563 188.882080,431.008972 179.282959,428.455475 
	C173.745178,426.982391 167.990707,426.323883 162.198547,425.274261 
	C162.198547,320.899933 162.198547,216.787994 162.198547,112.338364 
	C374.600647,112.338364 586.986694,112.338364 799.325317,112.338364 
	C799.325317,199.315536 799.325317,286.365417 799.325317,373.415314 
	C798.985291,373.428467 798.645325,373.441620 798.305298,373.454742 
	C797.916870,369.452179 797.874268,365.378448 797.068115,361.461853 
	C795.371643,353.220154 793.352417,345.041565 791.317932,336.873840 
	C789.634277,330.114258 788.161987,323.257019 785.837036,316.712646 
	C782.385437,306.996796 778.512817,297.409302 774.356018,287.971283 
	C770.347656,278.870178 766.184998,269.782501 761.292053,261.140839 
	C756.347534,252.408051 750.372192,244.262680 744.947449,235.796570 
	C741.640320,230.635422 738.454468,225.393295 735.333313,220.117050 
	C731.893311,214.301819 728.710144,208.331528 725.162842,202.584442 
	C723.879883,200.505859 721.867004,198.877838 717.751770,194.961014 
	C714.894165,198.974640 711.927429,202.915863 709.204468,207.018845 
	C705.066467,213.253754 698.139404,215.376434 691.896118,217.621155 
	C680.309265,221.787125 669.191833,226.607574 658.533875,232.803238 
	C647.935852,238.964096 636.749573,244.103958 626.016418,250.044083 
	C613.840454,256.782715 601.885803,263.920868 589.826477,270.870667 
	C575.196899,279.301758 560.507935,287.631683 545.960876,296.202576 
	C542.487915,298.248779 539.475586,301.076935 535.205078,304.346588 
	C535.205078,301.721375 534.788391,299.939880 535.276001,298.455505 
	C537.590454,291.410583 540.356750,284.510590 542.561035,277.434082 
	C544.392395,271.554901 545.626526,265.491547 547.198608,259.529114 
	C548.567505,254.337097 549.807373,249.094452 551.511963,244.010880 
	C555.419312,232.357986 550.812378,224.903732 537.756714,224.474777 
	C529.875061,224.215805 521.891174,226.268188 513.995178,227.541565 
	C509.202148,228.314529 504.316010,229.101196 499.777435,230.732391 
	C491.405792,233.741196 483.134460,237.108597 475.072510,240.865570 
	C471.168793,242.684784 466.270386,243.734818 464.735168,248.840408 
	C463.997864,251.292419 463.247864,253.740616 462.438019,256.406464 
	C470.529785,258.373322 477.163818,256.521210 483.735779,254.300247 
	C492.239807,251.426392 500.409515,251.176407 509.212524,254.292267 
	C515.542114,256.532654 521.017334,258.658508 523.826416,265.114227 
	C525.520020,269.006378 525.564087,272.456421 523.450195,276.564392 
	C518.899902,285.407043 515.056458,294.622589 511.131073,303.774506 
	C508.326752,310.312775 505.866486,316.998352 503.237854,323.612305 
	C502.594666,325.230682 501.893433,326.825958 500.646057,329.795624 
	C492.690826,328.484528 484.219849,326.657806 475.651947,325.803436 
	C467.847382,325.025146 461.877777,320.554962 455.674591,316.833435 
	C449.658539,313.224213 444.298706,308.389221 439.071777,303.630096 
	C432.576508,297.716125 426.057587,291.716400 420.370850,285.052307 
	C411.838593,275.053589 404.199005,264.298553 395.844635,254.140793 
	C388.833649,245.616364 385.114624,235.519516 381.078369,225.538849 
	C374.719635,209.815155 368.580048,194.001694 362.103699,178.327042 
	C357.272186,166.633438 352.118622,155.070862 346.968567,143.512268 
	C345.562866,140.357300 343.948517,137.208420 341.906769,134.442978 
	C338.377655,129.662933 334.006348,129.172714 326.907928,133.032959 
	C319.655365,136.977066 312.524750,141.197357 305.635223,145.743042 
	C298.354431,150.546860 290.901825,155.297867 284.437469,161.090958 
	C267.889862,175.920258 251.567291,191.028946 235.735596,206.615906 
	C228.730911,213.512314 223.132950,221.837158 216.892944,229.510757 
	C211.808640,235.763168 206.167526,241.647690 201.754150,248.341980 
	C194.056061,260.018616 190.197495,273.263763 194.392929,286.840027 
	C197.426804,296.657562 203.055099,305.757019 211.084137,312.875763 
	C213.271927,314.815521 215.178452,317.072449 217.402161,319.509888 
z"/>
<path fill="#023430" opacity="1.000000" stroke="none"
	d="
M766.825317,666.740356 
	C770.137817,656.296875 773.449524,646.288635 776.551086,636.215698 
	C778.799927,628.912476 780.971497,621.573669 782.818726,614.161316 
	C785.728882,602.484070 787.890686,590.603699 791.200684,579.047424 
	C794.448730,567.707520 797.502808,556.417114 798.064697,544.577393 
	C798.089050,544.065491 798.526978,543.573242 799.561462,543.262634 
	C799.561462,594.692993 799.561462,646.123413 799.561462,697.779297 
	C785.468384,697.779297 771.374878,697.779297 756.665588,697.779297 
	C760.078979,687.395203 763.406738,677.271545 766.825317,666.740356 
z"/>
</svg>